<?xml version="1.0" standalone="no"?>
<!DOCTYPE svg PUBLIC "-//W3C//DTD SVG 1.1//EN" "http://www.w3.org/Graphics/SVG/1.1/DTD/svg11.dtd" >
<!--
2013-9-30: Created.
-->
<svg>
<metadata>
Created by iconfont
</metadata>
<defs>

<font id="face" horiz-adv-x="1024" >
  <font-face
    font-family="face"
    font-weight="500"
    font-stretch="normal"
    units-per-em="1024"
    ascent="896"
    descent="-128"
  />
    <missing-glyph />
    
    <glyph glyph-name="x" unicode="x" horiz-adv-x="1001"
d="M281 543q-27 -1 -53 -1h-83q-18 0 -36.5 -6t-32.5 -18.5t-23 -32t-9 -45.5v-76h912v41q0 16 -0.5 30t-0.5 18q0 13 -5 29t-17 29.5t-31.5 22.5t-49.5 9h-133v-97h-438v97zM955 310v-52q0 -23 0.5 -52t0.5 -58t-10.5 -47.5t-26 -30t-33 -16t-31.5 -4.5q-14 -1 -29.5 -0.5
t-29.5 0.5h-32l-45 128h-439l-44 -128h-29h-34q-20 0 -45 1q-25 0 -41 9.5t-25.5 23t-13.5 29.5t-4 30v167h911zM163 247q-12 0 -21 -8.5t-9 -21.5t9 -21.5t21 -8.5q13 0 22 8.5t9 21.5t-9 21.5t-22 8.5zM316 123q-8 -26 -14 -48q-5 -19 -10.5 -37t-7.5 -25t-3 -15t1 -14.5
t9.5 -10.5t21.5 -4h37h67h81h80h64h36q23 0 34 12t2 38q-5 13 -9.5 30.5t-9.5 34.5q-5 19 -11 39h-368zM336 498v228q0 11 2.5 23t10 21.5t20.5 15.5t34 6h188q31 0 51.5 -14.5t20.5 -52.5v-227h-327z" />
    

    
    <glyph glyph-name="step-forward" unicode="&#60977;" d="M326.6 819.7L758 464.4 758 764c0 19.9 16.1 36 36 36l0 0c19.9 0 36-16.1 36-36l0-760c0-19.9-16.1-36-36-36l0 0c-19.9 0-36 16.1-36 36L758 305.4 326.7-51.799999999999955c-27.4-24.4-70.8-5-70.8 31.7L255.9 788.1C255.9 824.7 299.3 844.2 326.6 819.7z"  horiz-adv-x="1024" />

    
    <glyph glyph-name="step-backward" unicode="&#60978;" d="M759.3 819.7L327.9 464.4 327.9 764c0 19.9-16.1 36-36 36l0 0c-19.9 0-36-16.1-36-36l0-760c0-19.9 16.1-36 36-36l0 0c19.9 0 36 16.1 36 36L327.9 305.4l431.3-357.2c27.4-24.4 70.8-5 70.8 31.7L830 788.1C830 824.7 786.6 844.2 759.3 819.7z"  horiz-adv-x="1024" />

    
    <glyph glyph-name="forward" unicode="&#60979;" d="M575.1 789.9l436.2-375.4c16.9-15.7 16.9-43.3 0-59L575.1-21.899999999999977c-24.4-22.8-63.1-4.7-63.1 29.5l0 377.3L512 760.4C512 794.5 550.7 812.6 575.1 789.9zM63.1 789.9l436.2-375.4c8.4-7.9 12.6-18.7 12.6-29.5 0-10.8-4.2-21.6-12.6-29.5L63.1-21.899999999999977C38.7-44.60000000000002 0-26.5 0 7.600000000000023l0 752.7C0 794.5 38.7 812.6 63.1 789.9z"  horiz-adv-x="1024" />

    
    <glyph glyph-name="backward" unicode="&#60980;" d="M448.975 789.9L12.675 414.4c-16.9-15.7-16.9-43.3 0-59l436.2-377.3c24.4-22.8 63.1-4.7 63.1 29.5L511.975 384.9 511.975 760.4C512.075 794.5 473.375 812.6 448.975 789.9zM960.975 789.9L524.675 414.4c-8.4-7.9-12.6-18.7-12.6-29.5s4.2-21.6 12.6-29.5l436.2-377.3c24.4-22.8 63.1-4.7 63.1 29.5L1023.975 760.4C1024.075 794.5 985.375 812.6 960.975 789.9z"  horiz-adv-x="1025" />

    
    <glyph glyph-name="caret-right" unicode="&#60981;" d="M392.7 819.7l489.1-403.1c18.9-16.9 18.9-46.5 0-63.4L392.7-51.700000000000045c-27.4-24.4-70.8-5-70.8 31.7L321.9 788.1C322 824.7 365.3 844.2 392.7 819.7z"  horiz-adv-x="1024" />

    
    <glyph glyph-name="caret-left" unicode="&#60982;" d="M631.3 819.7L142.1 416.7c-18.9-16.9-18.9-46.5 0-63.4l489.1-405.1c27.4-24.4 70.8-5 70.8 31.7L702 788.1C702 824.7 658.6 844.2 631.3 819.7z"  horiz-adv-x="1024" />

    
    <glyph glyph-name="caret-down" unicode="&#60983;" d="M76.3 503.7l403.1-489.1c16.9-18.9 46.5-18.9 63.4 0l405.1 489.1c24.4 27.4 5 70.8-31.7 70.8l-808.1 0C71.3 574.5 51.8 531.1 76.3 503.7z"  horiz-adv-x="1024" />

    
    <glyph glyph-name="caret-up" unicode="&#60984;" d="M76.3 263.20000000000005l405.1 489.1c16.9 18.9 46.5 18.9 63.4 0l403.1-489.1c24.4-27.4 5-70.8-31.7-70.8L107.9 192.39999999999998C71.3 192.39999999999998 51.8 235.79999999999995 76.3 263.20000000000005z"  horiz-adv-x="1024" />

    
    <glyph glyph-name="right-of" unicode="&#60985;" d="M512 895.000976C229.475902 895.000976 0.499512 666.024585 0.499512 383.500488s228.97639-511.500488 511.500488-511.500488 511.500488 228.97639 511.500488 511.500488S794.524098 895.000976 512 895.000976zM681.334634 358.325073l-235.569951-220.78439c-14.485854-13.586732-37.26361-12.887415-50.850341 1.598439-13.586732 14.485854-12.887415 37.26361 1.598439 50.850341L604.110049 384.499512 396.612683 579.109463c-14.485854 13.586732-15.185171 36.364488-1.598439 50.850341 13.586732 14.485854 36.364488 15.185171 50.850341 1.598439l235.569951-220.78439c7.192976-6.693463 11.288976-16.184195 11.288976-26.174439S688.627512 365.01853700000004 681.334634 358.325073z"  horiz-adv-x="1024" />

    
    <glyph glyph-name="left-of" unicode="&#60986;" d="M512 895.000976C229.475902 895.000976 0.499512 666.024585 0.499512 383.500488s228.97639-511.500488 511.500488-511.500488 511.500488 228.97639 511.500488 511.500488S794.524098 895.000976 512 895.000976zM628.985756 139.03922c-13.586732-14.485854-36.364488-15.185171-50.850341-1.598439l-235.569951 220.78439C335.272585 365.01853700000004 331.176585 374.509268 331.176585 384.499512s4.096 19.480976 11.288976 26.174439l235.569951 220.78439c14.485854 13.586732 37.26361 12.887415 50.850341-1.598439 13.586732-14.485854 12.887415-37.26361-1.598439-50.850341L419.790049 384.499512l207.597268-194.609951C641.873171 176.30282899999997 642.572488 153.52507300000002 628.985756 139.03922z"  horiz-adv-x="1024" />

    
    <glyph glyph-name="up-of" unicode="&#60987;" d="M512 895.000976C229.475902 895.000976 0.499512 666.024585 0.499512 383.500488s228.97639-511.500488 511.500488-511.500488 511.500488 228.97639 511.500488 511.500488S794.524098 895.000976 512 895.000976zM757.36039 278.503024c-14.485854-13.586732-37.26361-12.887415-50.850341 1.598439L512 487.598829 317.390049 280.00156100000004c-13.586732-14.485854-36.364488-15.185171-50.850341-1.598439-14.485854 13.586732-15.185171 36.364488-1.598439 50.850341l220.78439 235.569951c6.793366 7.292878 16.284098 11.388878 26.274341 11.388878s19.480976-4.096 26.174439-11.288976l220.78439-235.569951C772.545561 314.86751200000003 771.846244 292.08975599999997 757.36039 278.503024z"  horiz-adv-x="1024" />

    
    <glyph glyph-name="down-of" unicode="&#60988;" d="M512 895.000976C229.475902 895.000976 0.499512 666.024585 0.499512 383.500488s228.97639-511.500488 511.500488-511.500488 511.500488 228.97639 511.500488 511.500488S794.524098 895.000976 512 895.000976zM758.958829 429.655415l-220.78439-235.569951c-6.693463-7.192976-16.184195-11.288976-26.174439-11.288976s-19.480976 4.096-26.274341 11.388878l-220.78439 235.569951c-13.586732 14.485854-12.887415 37.26361 1.598439 50.850341 14.485854 13.586732 37.26361 12.887415 50.850341-1.598439L512 271.409951l194.510049 207.497366c13.586732 14.485854 36.364488 15.185171 50.850341 1.598439C771.846244 466.919024 772.545561 444.141268 758.958829 429.655415z"  horiz-adv-x="1024" />

    
    <glyph glyph-name="right-o" unicode="&#60989;" d="M512 823.07122c59.342049 0 116.885854-11.588683 171.032976-34.466341 52.348878-22.178341 99.303024-53.847415 139.763512-94.208 40.360585-40.360585 72.129561-87.414634 94.208-139.763512C939.982049 500.386341 951.570732 442.842537 951.570732 383.500488s-11.588683-116.885854-34.466341-171.032976c-22.178341-52.348878-53.847415-99.303024-94.208-139.763512-40.360585-40.360585-87.414634-72.129561-139.763512-94.208C628.885854-44.481561000000056 571.342049-56.070244 512-56.070244s-116.885854 11.588683-171.032976 34.466341c-52.348878 22.178341-99.303024 53.847415-139.763512 94.208-40.360585 40.360585-72.129561 87.414634-94.208 139.763512C84.017951 266.614634 72.429268 324.15843900000004 72.429268 383.500488s11.588683 116.885854 34.466341 171.032976c22.178341 52.348878 53.847415 99.303024 94.208 139.763512 40.360585 40.360585 87.414634 72.129561 139.763512 94.208C395.114146 811.482537 452.657951 823.07122 512 823.07122M512 895.000976C229.475902 895.000976 0.499512 666.024585 0.499512 383.500488s228.97639-511.500488 511.500488-511.500488 511.500488 228.97639 511.500488 511.500488S794.524098 895.000976 512 895.000976L512 895.000976zM681.434537 410.673951l-235.569951 220.78439c-14.485854 13.586732-37.26361 12.887415-50.850341-1.598439-13.586732-14.485854-12.887415-37.26361 1.598439-50.850341L604.110049 384.499512 396.51278 189.88956099999996c-14.485854-13.586732-15.185171-36.364488-1.598439-50.850341 13.586732-14.485854 36.364488-15.185171 50.850341-1.598439l235.569951 220.78439c7.292878 6.793366 11.388878 16.284098 11.388878 26.274341S688.627512 403.980488 681.434537 410.673951z"  horiz-adv-x="1024" />

    
    <glyph glyph-name="left-o" unicode="&#60990;" d="M512 823.07122c59.342049 0 116.885854-11.588683 171.032976-34.466341 52.348878-22.178341 99.303024-53.847415 139.763512-94.208 40.360585-40.360585 72.129561-87.414634 94.208-139.763512C939.982049 500.386341 951.570732 442.842537 951.570732 383.500488s-11.588683-116.885854-34.466341-171.032976c-22.178341-52.348878-53.847415-99.303024-94.208-139.763512-40.360585-40.360585-87.414634-72.129561-139.763512-94.208C628.885854-44.481561000000056 571.342049-56.070244 512-56.070244s-116.885854 11.588683-171.032976 34.466341c-52.348878 22.178341-99.303024 53.847415-139.763512 94.208-40.360585 40.360585-72.129561 87.414634-94.208 139.763512C84.017951 266.614634 72.429268 324.15843900000004 72.429268 383.500488s11.588683 116.885854 34.466341 171.032976c22.178341 52.348878 53.847415 99.303024 94.208 139.763512 40.360585 40.360585 87.414634 72.129561 139.763512 94.208C395.114146 811.482537 452.657951 823.07122 512 823.07122M512 895.000976C229.475902 895.000976 0.499512 666.024585 0.499512 383.500488s228.97639-511.500488 511.500488-511.500488 511.500488 228.97639 511.500488 511.500488S794.524098 895.000976 512 895.000976L512 895.000976zM331.176585 384.499512c0-9.990244 4.096-19.480976 11.388878-26.274341l235.569951-220.78439c14.485854-13.586732 37.26361-12.887415 50.850341 1.598439 13.586732 14.485854 12.887415 37.26361-1.598439 50.850341L419.790049 384.499512l207.497366 194.510049c14.485854 13.586732 15.185171 36.364488 1.598439 50.850341-13.586732 14.485854-36.364488 15.185171-50.850341 1.598439l-235.569951-220.78439C335.272585 403.980488 331.176585 394.489756 331.176585 384.499512z"  horiz-adv-x="1024" />

    
    <glyph glyph-name="up-o" unicode="&#60991;" d="M512 823.07122c59.342049 0 116.885854-11.588683 171.032976-34.466341 52.348878-22.178341 99.303024-53.847415 139.763512-94.208 40.360585-40.360585 72.129561-87.414634 94.208-139.763512C939.982049 500.386341 951.570732 442.842537 951.570732 383.500488s-11.588683-116.885854-34.466341-171.032976c-22.178341-52.348878-53.847415-99.303024-94.208-139.763512-40.360585-40.360585-87.414634-72.129561-139.763512-94.208C628.885854-44.481561000000056 571.342049-56.070244 512-56.070244s-116.885854 11.588683-171.032976 34.466341c-52.348878 22.178341-99.303024 53.847415-139.763512 94.208-40.360585 40.360585-72.129561 87.414634-94.208 139.763512C84.017951 266.614634 72.429268 324.15843900000004 72.429268 383.500488s11.588683 116.885854 34.466341 171.032976c22.178341 52.348878 53.847415 99.303024 94.208 139.763512 40.360585 40.360585 87.414634 72.129561 139.763512 94.208C395.114146 811.482537 452.657951 823.07122 512 823.07122M512 895.000976C229.475902 895.000976 0.499512 666.024585 0.499512 383.500488s228.97639-511.500488 511.500488-511.500488 511.500488 228.97639 511.500488 511.500488S794.524098 895.000976 512 895.000976L512 895.000976zM512 576.212293c-9.990244 0-19.480976-4.096-26.274341-11.388878l-220.78439-235.569951c-13.586732-14.485854-12.887415-37.26361 1.598439-50.850341 14.485854-13.586732 37.26361-12.887415 50.850341 1.598439L512 487.598829l194.510049-207.497366c13.586732-14.485854 36.364488-15.185171 50.850341-1.598439 14.485854 13.586732 15.185171 36.364488 1.598439 50.850341l-220.78439 235.569951C531.480976 572.116293 521.990244 576.212293 512 576.212293z"  horiz-adv-x="1024" />

    
    <glyph glyph-name="down-o" unicode="&#60992;" d="M512 823.07122c59.342049 0 116.885854-11.588683 171.032976-34.466341 52.348878-22.178341 99.303024-53.847415 139.763512-94.208 40.360585-40.360585 72.129561-87.414634 94.208-139.763512C939.982049 500.386341 951.570732 442.842537 951.570732 383.500488s-11.588683-116.885854-34.466341-171.032976c-22.178341-52.348878-53.847415-99.303024-94.208-139.763512-40.360585-40.360585-87.414634-72.129561-139.763512-94.208C628.885854-44.481561000000056 571.342049-56.070244 512-56.070244s-116.885854 11.588683-171.032976 34.466341c-52.348878 22.178341-99.303024 53.847415-139.763512 94.208-40.360585 40.360585-72.129561 87.414634-94.208 139.763512C84.017951 266.614634 72.429268 324.15843900000004 72.429268 383.500488s11.588683 116.885854 34.466341 171.032976c22.178341 52.348878 53.847415 99.303024 94.208 139.763512 40.360585 40.360585 87.414634 72.129561 139.763512 94.208C395.114146 811.482537 452.657951 823.07122 512 823.07122M512 895.000976C229.475902 895.000976 0.499512 666.024585 0.499512 383.500488s228.97639-511.500488 511.500488-511.500488 511.500488 228.97639 511.500488 511.500488S794.524098 895.000976 512 895.000976L512 895.000976zM512 182.79648799999995c-9.990244 0-19.480976 4.096-26.274341 11.388878l-220.78439 235.569951c-13.586732 14.485854-12.887415 37.26361 1.598439 50.850341 14.485854 13.586732 37.26361 12.887415 50.850341-1.598439L512 271.409951l194.510049 207.497366c13.586732 14.485854 36.364488 15.185171 50.850341 1.598439 14.485854-13.586732 15.185171-36.364488 1.598439-50.850341l-220.78439-235.569951C531.480976 186.89248799999996 521.990244 182.79648799999995 512 182.79648799999995z"  horiz-adv-x="1024" />

    
    <glyph glyph-name="roll-back" unicode="&#60995;" d="M811.6 471.9c-57.2 57.2-133.2 88.6-214 88.6L262.4 560.5l113.4 113.4c15.6 15.6 15.6 40.9 0 56.6s-40.9 15.6-56.6 0L135.5 546.7c-7.5-7.5-11.7-17.7-11.7-28.3 0-10.6 4.2-20.8 11.7-28.3L314 311.6c7.8-7.8 18-11.7 28.3-11.7s20.5 3.9 28.3 11.7c15.6 15.6 15.6 40.9 0 56.6L258.2 480.5l339.4 0c59.5 0 115.4-23.2 157.4-65.2 42.1-42.1 65.2-98 65.2-157.4l0-192c0-22.1 17.9-40 40-40s40 17.9 40 40l0 192C900.3 338.70000000000005 868.8 414.7 811.6 471.9z"  horiz-adv-x="1024" />

    
    <glyph glyph-name="retweet" unicode="&#60996;" d="M365.6 578.7l349 0L595.5 459.5c-14.1-14.1-14.1-36.9 0-50.9 7-7 16.2-10.5 25.5-10.5s18.4 3.5 25.5 10.5L825 587.1c6.8 6.8 10.5 15.9 10.5 25.5s-3.8 18.7-10.5 25.5L641.2 821.8c-14.1 14.1-36.9 14.1-50.9 0-14.1-14.1-14.1-36.9 0-50.9l120.2-120.2L365.6 650.7c-79.8 0-154.8-31.1-211.2-87.5C98.1 506.8 67 431.8 67 352c0-19.9 16.1-36 36-36s36 16.1 36 36c0 60.5 23.6 117.5 66.4 160.3C248.2 555.1 305.1 578.7 365.6 578.7zM923.1 455c-19.9 0-36-16.1-36-36 0-60.5-23.6-117.5-66.4-160.3-42.8-42.8-99.7-66.4-160.3-66.4l-349 0 119.2 119.2c14.1 14.1 14.1 36.9 0 50.9-14.1 14.1-36.9 14.1-50.9 0L201.2 183.9c-6.8-6.8-10.5-15.9-10.5-25.5s3.8-18.7 10.5-25.5l183.7-183.7c7-7 16.2-10.5 25.5-10.5s18.4 3.5 25.5 10.5c14.1 14.1 14.1 36.9 0 50.9L315.6 120.4l344.9 0c79.8 0 154.8 31.1 211.2 87.5 56.4 56.4 87.5 131.4 87.5 211.2C959.1 438.9 943 455 923.1 455z"  horiz-adv-x="1024" />

    
    <glyph glyph-name="shrink" unicode="&#60997;" d="M108.8 247.2 320 247.2 87.9 15.2c-17.2-17.2-17.2-45 0-62.2 17.2-17.2 45-17.2 62.2 0l235.7 235.7 0-209.4c0-24.3 19.7-44 44-44 24.3 0 44 19.7 44 44l0 312c0 24.3-19.7 44-44 44l-321 0c-24.3 0-44-19.7-44-44S84.5 247.2 108.8 247.2zM594.8 431.2l321 0c24.3 0 44 19.7 44 44 0 24.3-19.7 44-44 44L704.7 519.2l232.1 232.1c17.2 17.2 17.2 45 0 62.2-8.6 8.6-19.9 12.9-31.1 12.9-11.3 0-22.5-4.3-31.1-12.9L638.8 577.8 638.8 787.2c0 24.3-19.7 44-44 44s-44-19.7-44-44l0-312C550.8 450.9 570.5 431.2 594.8 431.2z"  horiz-adv-x="1024" />

    
    <glyph glyph-name="resize" unicode="&#60998;" d="M429.9 23.200000000000045L218.7 23.200000000000045l232.1 232.1c17.2 17.2 17.2 45 0 62.2-17.2 17.2-45 17.2-62.2 0L152.8 81.79999999999995 152.8 291.20000000000005c0 24.3-19.7 44-44 44-24.3 0-44-19.7-44-44l0-312c0-24.3 19.7-44 44-44l321 0c24.3 0 44 19.7 44 44S454.2 23.200000000000045 429.9 23.200000000000045zM915.9 831.2l-321 0c-24.3 0-44-19.7-44-44 0-24.3 19.7-44 44-44L806 743.2 573.9 511.2c-17.2-17.2-17.2-45 0-62.2 8.6-8.6 19.9-12.9 31.1-12.9 11.3 0 22.5 4.3 31.1 12.9l235.7 235.7 0-209.4c0-24.3 19.7-44 44-44s44 19.7 44 44l0 312C959.9 811.5 940.2 831.2 915.9 831.2z"  horiz-adv-x="1024" />

    
    <glyph glyph-name="reload" unicode="&#60999;" d="M852.9 357.6c-20.9 0-37.8-16.9-37.8-37.8 0-81-31.5-157.1-88.8-214.3C669.1 48.2 593 16.7 512 16.7s-157.1 31.5-214.3 88.8c-57.3 57.3-88.8 133.4-88.8 214.3s31.5 157.1 88.8 214.3c57.3 57.3 133.4 88.8 214.3 88.8 0.3 0 0.6 0 0.9 0l-66.2-86.3c-12.7-16.6-9.6-40.3 7-52.9 6.9-5.3 14.9-7.8 22.9-7.8 11.3 0 22.6 5.1 30 14.8l118.7 154.9c12.7 16.6 9.6 40.3-7 52.9L461 819.1c-16.6 12.7-40.3 9.5-52.9-7-12.7-16.6-9.6-40.3 7-52.9l79.7-61.1c-45-2-88.7-11.8-130.1-29.4-45.1-19.1-85.6-46.4-120.3-81.1-34.8-34.8-62.1-75.3-81.1-120.3-19.8-46.7-29.8-96.3-29.8-147.4 0-51.1 10-100.7 29.8-147.4 19.1-45.1 46.4-85.6 81.1-120.3 34.8-34.8 75.3-62.1 120.3-81.1 46.7-19.8 96.3-29.8 147.4-29.8 51.1 0 100.7 10 147.4 29.8C704.5-10 745 17.3 779.7 52c34.8 34.8 62.1 75.3 81.1 120.3 19.8 46.7 29.8 96.3 29.8 147.4C890.7 340.6 873.7 357.6 852.9 357.6z"  horiz-adv-x="1024" />

    
    <glyph glyph-name="double-right" unicode="&#61000;" d="M431 16.600000000000023c-15.1 18.8-12.1 46.3 6.7 61.4l381.5 306.9-379.6 305c-18.8 15.1-21.8 42.6-6.7 61.4 15.1 18.8 42.6 21.8 61.4 6.7l422-339.1c10.3-8.2 16.3-20.8 16.3-34 0-13.3-6-25.8-16.3-34.1L492.5 9.899999999999977c-8.1-6.4-17.8-9.6-27.4-9.6C452.3 0.2999999999999545 439.7 5.899999999999977 431 16.600000000000023zM101 16.600000000000023c-15.1 18.8-12.1 46.3 6.7 61.4l381.5 306.9-379.6 305c-18.8 15.1-21.8 42.6-6.7 61.4 15.1 18.8 42.6 21.8 61.4 6.7l422-339.1c10.3-8.2 16.3-20.8 16.3-34 0-13.3-6-25.8-16.3-34.1L162.5 9.899999999999977c-8.1-6.4-17.8-9.6-27.4-9.6C122.3 0.2999999999999545 109.7 5.899999999999977 101 16.600000000000023z"  horiz-adv-x="1024" />

    
    <glyph glyph-name="double-left" unicode="&#61001;" d="M558.9 0.2999999999999545c-9.6 0-19.3 3.2-27.4 9.6L107.7 350.79999999999995c-10.3 8.3-16.3 20.8-16.3 34.1 0 13.2 6 25.8 16.3 34l422 339.1c18.8 15.1 46.3 12.1 61.4-6.7 15.1-18.8 12.1-46.3-6.7-61.4l-379.6-305L586.3 78c18.8-15.1 21.8-42.6 6.7-61.4C584.3 5.899999999999977 571.7 0.2999999999999545 558.9 0.2999999999999545zM888.9 0.2999999999999545c-9.6 0-19.3 3.2-27.4 9.6L437.7 350.79999999999995c-10.3 8.3-16.3 20.8-16.3 34.1 0 13.2 6 25.8 16.3 34l422 339.1c18.8 15.1 46.3 12.1 61.4-6.7 15.1-18.8 12.1-46.3-6.7-61.4l-379.6-305L916.3 78c18.8-15.1 21.8-42.6 6.7-61.4C914.3 5.899999999999977 901.7 0.2999999999999545 888.9 0.2999999999999545z"  horiz-adv-x="1024" />

    
    <glyph glyph-name="arrow-down" unicode="&#61002;" d="M558 724.8l0-573.7c0-0.1 0.2-0.2 0.2-0.1l208 216.4c16.8 17.5 44.7 18.1 62.2 1.2 17.5-16.8 18.1-44.7 1.2-62.2L546.5 11.799999999999955c-8.3-8.6-19.8-13.5-31.7-13.5-12 0-23.4 4.9-31.7 13.5L198.3 308c-8.2 8.5-12.3 19.5-12.3 30.5 0 11.6 4.5 23.1 13.5 31.7 17.5 16.8 45.4 16.3 62.2-1.2l208-216.4c0.1-0.1 0.2 0 0.2 0.1L469.9 725.8c0 23.4 18.3 42.5 41.3 43.9C536.8 771.2 558 750.3 558 724.8z"  horiz-adv-x="1024" />

    
    <glyph glyph-name="arrow-up" unicode="&#61003;" d="M470 43.200000000000045L470 616.9c0 0.1-0.2 0.2-0.2 0.1l-208-216.4c-16.8-17.5-44.7-18.1-62.2-1.2-17.5 16.8-18.1 44.7-1.2 62.2l283.2 294.7c8.3 8.6 19.8 13.5 31.7 13.5 12 0 23.4-4.9 31.7-13.5L829.7 460c8.2-8.5 12.3-19.5 12.3-30.5 0-11.6-4.5-23.1-13.5-31.7-17.5-16.8-45.4-16.3-62.2 1.2l-208 216.4c-0.1 0.1-0.2 0-0.2-0.1l0-573.1c0-23.4-18.3-42.5-41.3-43.9C491.2-3.2000000000000455 470 17.700000000000045 470 43.200000000000045z"  horiz-adv-x="1024" />

    
    <glyph glyph-name="arrow-right" unicode="&#61004;" d="M173.2 428l573.7 0c0.1 0 0.2 0.2 0.1 0.2l-216.4 208c-17.5 16.8-18.1 44.7-1.2 62.2 16.8 17.5 44.7 18.1 62.2 1.2l294.7-283.2c8.6-8.3 13.5-19.8 13.5-31.7 0-12-4.9-23.4-13.5-31.7L590 68.29999999999995c-8.5-8.2-19.5-12.3-30.5-12.3-11.6 0-23.1 4.5-31.7 13.5-16.8 17.5-16.3 45.4 1.2 62.2l216.4 208c0.1 0.1 0 0.2-0.1 0.2L172.2 339.9c-23.4 0-42.5 18.3-43.9 41.3C126.8 406.8 147.7 428 173.2 428z"  horiz-adv-x="1024" />

    
    <glyph glyph-name="arrow-left" unicode="&#61005;" d="M854.8 428L281.1 428c-0.1 0-0.2 0.2-0.1 0.2l216.4 208c17.5 16.8 18.1 44.7 1.2 62.2-16.8 17.5-44.7 18.1-62.2 1.2L141.8 416.5c-8.6-8.3-13.5-19.8-13.5-31.7 0-12 4.9-23.4 13.5-31.7l296.2-284.7c8.5-8.2 19.5-12.3 30.5-12.3 11.6 0 23.1 4.5 31.7 13.5 16.8 17.5 16.3 45.4-1.2 62.2l-216.4 208c-0.1 0.1 0 0.2 0.1 0.2l573.1 0c23.4 0 42.5 18.3 43.9 41.3C901.2 406.8 880.3 428 854.8 428z"  horiz-adv-x="1024" />

    
    <glyph glyph-name="down" unicode="&#61006;" d="M895.7 595.9c0-9.6-3.2-19.3-9.6-27.4L545.2 144.7c-8.3-10.3-20.8-16.3-34.1-16.3-13.2 0-25.8 6-34 16.3l-339.1 422c-15.1 18.8-12.1 46.3 6.7 61.4 18.8 15.1 46.3 12.1 61.4-6.7l305.1-379.6L818 623.3c15.1 18.8 42.6 21.8 61.4 6.7C890.1 621.3 895.7 608.7 895.7 595.9z"  horiz-adv-x="1024" />

    
    <glyph glyph-name="up" unicode="&#61007;" d="M895.7 236.1c0 9.6-3.2 19.3-9.6 27.4L545.2 687.3c-8.3 10.3-20.8 16.3-34.1 16.3-13.2 0-25.8-6-34-16.3l-339.1-422c-15.1-18.8-12.1-46.3 6.7-61.4 18.8-15.1 46.3-12.1 61.4 6.7l305.1 379.6L818 208.7c15.1-18.8 42.6-21.8 61.4-6.7C890.1 210.7 895.7 223.3 895.7 236.1z"  horiz-adv-x="1024" />

    
    <glyph glyph-name="right" unicode="&#61008;" d="M300.6 0.3c9.6 0 19.3 3.2 27.4 9.6l423.8 340.9c10.3 8.3 16.3 20.8 16.3 34.1 0 13.2-6 25.8-16.3 34l-422 339.1c-18.8 15.1-46.3 12.1-61.4-6.7-15.1-18.8-12.1-46.3 6.7-61.4l379.6-305.1L273.2 78c-18.8-15.1-21.8-42.6-6.7-61.4C275.2 5.9 287.8 0.3 300.6 0.3z"  horiz-adv-x="1024" />

    
    <glyph glyph-name="left" unicode="&#61009;" d="M724.4 0.3c-9.6 0-19.3 3.2-27.4 9.6L273.2 350.8c-10.3 8.3-16.3 20.8-16.3 34.1 0 13.2 6 25.8 16.3 34l422 339.1c18.8 15.1 46.3 12.1 61.4-6.7 15.1-18.8 12.1-46.3-6.7-61.4L370.3 384.9 751.8 78c18.8-15.1 21.8-42.6 6.7-61.4C749.8 5.9 737.2 0.3 724.4 0.3z"  horiz-adv-x="1024" />

    
    <glyph glyph-name="minus-s" unicode="&#61010;" d="M888.5 760.5L888.5 760.5 888.5 760.5l0-753.1 0 0-753 0 0 0L135.5 760.5l0 0L888.5 760.5M888.5 832.5l-753 0c-39.8 0-72-32.2-72-72l0-753.1c0-39.8 32.2-72 72-72l753.1 0c39.8 0 72 32.2 72 72L960.6 760.5C960.5 800.3 928.3 832.5 888.5 832.5L888.5 832.5zM731.5 347l-441 0c-19.9 0-36 16.1-36 36l0 0c0 19.9 16.1 36 36 36l441 0c19.9 0 36-16.1 36-36l0 0C767.5 363.1 751.4 347 731.5 347z"  horiz-adv-x="1024" />

    
    <glyph glyph-name="minus-of" unicode="&#61011;" d="M512 896C229.2 896 0 666.8 0 384s229.2-512 512-512 512 229.2 512 512S794.8 896 512 896zM832.5 384c0-19.9-16.1-36-36-36l-569 0c-19.9 0-36 16.1-36 36l0 0c0 19.9 16.1 36 36 36l569 0C816.4 420 832.5 403.9 832.5 384L832.5 384z"  horiz-adv-x="1024" />

    
    <glyph glyph-name="minus-o" unicode="&#61012;" d="M512 896C229.2 896 0 666.8 0 384s229.2-512 512-512 512 229.2 512 512S794.8 896 512 896zM823.1 72.89999999999998c-40.4-40.4-87.5-72.2-139.9-94.3C629-44.39999999999998 571.4-56 512-56s-117 11.6-171.2 34.5c-52.4 22.2-99.4 53.9-139.9 94.3-40.4 40.4-72.2 87.5-94.3 139.9C83.6 267 72 324.6 72 384s11.6 117 34.5 171.2c22.2 52.4 53.9 99.4 94.3 139.9 40.4 40.4 87.5 72.2 139.9 94.3C395 812.4 452.6 824 512 824s117-11.6 171.2-34.5c52.4-22.2 99.4-53.9 139.9-94.3 40.4-40.4 72.2-87.5 94.3-139.9C940.4 501 952 443.4 952 384s-11.6-117-34.5-171.2C895.3 160.39999999999998 863.6 113.29999999999995 823.1 72.89999999999998zM796.5 348l-569 0c-19.9 0-36 16.1-36 36l0 0c0 19.9 16.1 36 36 36l569 0c19.9 0 36-16.1 36-36l0 0C832.5 364.1 816.4 348 796.5 348z"  horiz-adv-x="1024" />

    
    <glyph glyph-name="minus" unicode="&#61013;" d="M796.5 348l-569 0c-19.9 0-36 16.1-36 36l0 0c0 19.9 16.1 36 36 36l569 0c19.9 0 36-16.1 36-36l0 0C832.5 364.1 816.4 348 796.5 348z"  horiz-adv-x="1024" />

    
    <glyph glyph-name="plus-o" unicode="&#61014;" d="M512 896C229.2 896 0 666.8 0 384s229.2-512 512-512 512 229.2 512 512S794.8 896 512 896zM823.1 72.89999999999998c-40.4-40.4-87.5-72.2-139.9-94.3C629-44.39999999999998 571.4-56 512-56c-59.4 0-117 11.6-171.2 34.5-52.4 22.2-99.4 53.9-139.9 94.3-40.4 40.4-72.2 87.5-94.3 139.9C83.6 267 72 324.6 72 384c0 59.4 11.6 117 34.5 171.2 22.2 52.4 53.9 99.4 94.3 139.9 40.4 40.4 87.5 72.2 139.9 94.3C395 812.4 452.6 824 512 824c59.4 0 117-11.6 171.2-34.5 52.4-22.2 99.4-53.9 139.9-94.3 40.4-40.4 72.2-87.5 94.3-139.9C940.4 501 952 443.4 952 384c0-59.4-11.6-117-34.5-171.2C895.3 160.39999999999998 863.6 113.29999999999995 823.1 72.89999999999998zM732 419.5L548.5 419.5 548.5 603c0 19.9-16.1 36-36 36l0 0c-19.9 0-36-16.1-36-36l0-183.5L292 419.5c-19.9 0-36-16.1-36-36l0 0c0-19.9 16.1-36 36-36l184.5 0L476.5 165c0-19.9 16.1-36 36-36l0 0c19.9 0 36 16.1 36 36L548.5 347.5 732 347.5c19.9 0 36 16.1 36 36l0 0C768 403.4 751.9 419.5 732 419.5z"  horiz-adv-x="1024" />

    
    <glyph glyph-name="plus-of" unicode="&#61015;" d="M512 896C229.2 896 0 666.8 0 384s229.2-512 512-512 512 229.2 512 512S794.8 896 512 896zM768 383.5c0-19.9-16.1-36-36-36L548.5 347.5 548.5 165c0-19.9-16.1-36-36-36l0 0c-19.9 0-36 16.1-36 36L476.5 347.5 292 347.5c-19.9 0-36 16.1-36 36l0 0c0 19.9 16.1 36 36 36l184.5 0L476.5 603c0 19.9 16.1 36 36 36l0 0c19.9 0 36-16.1 36-36l0-183.5L732 419.5C751.9 419.5 768 403.4 768 383.5L768 383.5z"  horiz-adv-x="1024" />

    
    <glyph glyph-name="plus" unicode="&#61016;" d="M866.5 420 548 420 548 730.5c0 19.9-16.1 36-36 36l0 0c-19.9 0-36-16.1-36-36L476 420 164.5 420c-19.9 0-36-16.1-36-36l0 0c0-19.9 16.1-36 36-36L476 348l0-311.5c0-19.9 16.1-36 36-36l0 0c19.9 0 36 16.1 36 36L548 348l318.5 0c19.9 0 36 16.1 36 36l0 0C902.5 403.9 886.4 420 866.5 420z"  horiz-adv-x="1024" />

    
    <glyph glyph-name="info-of" unicode="&#61017;" d="M512 896C229.2 896 0 666.8 0 384s229.2-512 512-512 512 229.2 512 512S794.8 896 512 896zM509 711.5c19.9 0 36-16.1 36-36s-16.1-36-36-36-36 16.1-36 36S489.1 711.5 509 711.5zM666.2 154.39999999999998c0-19.9-16.1-36-36-36L545 118.39999999999998l-72 0-85.2 0c-19.9 0-36 16.1-36 36l0 0c0 19.9 16.1 36 36 36L473 190.39999999999998 473 504.5l-60 0c-19.9 0-36 16.1-36 36l0 0c0 19.9 16.1 36 36 36l60 0 36 0 0 0c19.9 0 36-16.1 36-36l0-350.1 85.2 0C650.1 190.39999999999998 666.2 174.29999999999995 666.2 154.39999999999998L666.2 154.39999999999998z"  horiz-adv-x="1024" />

    
    <glyph glyph-name="info-o" unicode="&#61018;" d="M512 896C229.2 896 0 666.8 0 384s229.2-512 512-512 512 229.2 512 512S794.8 896 512 896zM823.1 72.89999999999998c-40.4-40.4-87.5-72.2-139.9-94.3C629-44.39999999999998 571.4-56 512-56c-59.4 0-117 11.6-171.2 34.5-52.4 22.2-99.4 53.9-139.9 94.3-40.4 40.4-72.2 87.5-94.3 139.9C83.6 267 72 324.6 72 384c0 59.4 11.6 117 34.5 171.2 22.2 52.4 53.9 99.4 94.3 139.9 40.4 40.4 87.5 72.2 139.9 94.3C395 812.4 452.6 824 512 824c59.4 0 117-11.6 171.2-34.5 52.4-22.2 99.4-53.9 139.9-94.3 40.4-40.4 72.2-87.5 94.3-139.9C940.4 501 952 443.4 952 384c0-59.4-11.6-117-34.5-171.2C895.3 160.39999999999998 863.6 113.29999999999995 823.1 72.89999999999998zM630.2 190.39999999999998L545 190.39999999999998 545 540.5c0 19.9-16.1 36-36 36l0 0-36 0-60 0c-19.9 0-36-16.1-36-36l0 0c0-19.9 16.1-36 36-36l60 0 0-314.1-85.2 0c-19.9 0-36-16.1-36-36l0 0c0-19.9 16.1-36 36-36L473 118.39999999999998l72 0 85.2 0c19.9 0 36 16.1 36 36l0 0C666.2 174.29999999999995 650.1 190.39999999999998 630.2 190.39999999999998zM509 675.5m-36 0a36 36 0 1 1 72 0 36 36 0 1 1-72 0Z"  horiz-adv-x="1024" />

    
    <glyph glyph-name="info" unicode="&#61019;" d="M660.2 136.4 575 136.4 575 540.5c0 19.9-16.1 36-36 36l0 0-36 0-60 0c-19.9 0-36-16.1-36-36l0 0c0-19.9 16.1-36 36-36l60 0 0-368.1-85.2 0c-19.9 0-36-16.1-36-36l0 0c0-19.9 16.1-36 36-36L503 64.4l72 0 85.2 0c19.9 0 36 16.1 36 36l0 0C696.2 120.3 680.1 136.4 660.2 136.4zM539 675.5m-36 0a36 36 0 1 0 72 0 36 36 0 1 0-72 0Z"  horiz-adv-x="1024" />

    
    <glyph glyph-name="warning" unicode="&#61020;" d="M512 193c-22.1 0-40 17.9-40 40L472 728c0 22.1 17.9 40 40 40 22.1 0 40-17.9 40-40l0-495C552 210.89999999999998 534.1 193 512 193zM512 83m-45 0a45 45 0 1 1 90 0 45 45 0 1 1-90 0Z"  horiz-adv-x="1024" />

    
    <glyph glyph-name="warning-of" unicode="&#61021;" d="M512 896C229.2 896 0 666.8 0 384s229.2-512 512-512 512 229.2 512 512S794.8 896 512 896zM472 665c0 22.1 17.9 40 40 40 22.1 0 40-17.9 40-40l0-369c0-22.1-17.9-40-40-40-22.1 0-40 17.9-40 40L472 665zM512 102c-24.9 0-45 20.1-45 45 0 24.9 20.1 45 45 45s45-20.1 45-45C557 122.20000000000005 536.9 102 512 102z"  horiz-adv-x="1024" />

    
    <glyph glyph-name="warning-o" unicode="&#61022;" d="M512 824c59.4 0 117-11.6 171.2-34.5 52.4-22.2 99.4-53.9 139.9-94.3 40.4-40.4 72.2-87.5 94.3-139.9C940.4 501 952 443.4 952 384s-11.6-117-34.5-171.2c-22.2-52.4-53.9-99.4-94.3-139.9-40.4-40.4-87.5-72.2-139.9-94.3C629-44.39999999999998 571.4-56 512-56s-117 11.6-171.2 34.5c-52.4 22.2-99.4 53.9-139.9 94.3-40.4 40.4-72.2 87.5-94.3 139.9C83.6 267 72 324.6 72 384s11.6 117 34.5 171.2c22.2 52.4 53.9 99.4 94.3 139.9 40.4 40.4 87.5 72.2 139.9 94.3C395 812.4 452.6 824 512 824M512 896C229.2 896 0 666.8 0 384s229.2-512 512-512 512 229.2 512 512S794.8 896 512 896L512 896zM512 256c-22.1 0-40 17.9-40 40L472 665c0 22.1 17.9 40 40 40 22.1 0 40-17.9 40-40l0-369C552 273.9 534.1 256 512 256zM512 147m-45 0a45 45 0 1 1 90 0 45 45 0 1 1-90 0Z"  horiz-adv-x="1024" />

    
    <glyph glyph-name="close-of" unicode="&#61023;" d="M512 896C229.2 896 0 666.8 0 384s229.2-512 512-512 512 229.2 512 512S794.8 896 512 896zM717.3 229.10000000000002c14-14.1 14-36.9-0.1-50.9-7-7-16.2-10.5-25.4-10.5-9.2 0-18.5 3.5-25.5 10.6L512 333 357.7 178.29999999999995c-7-7.1-16.3-10.6-25.5-10.6-9.2 0-18.4 3.5-25.4 10.5-14.1 14-14.1 36.8-0.1 50.9L461.2 384 306.7 538.9c-14 14.1-14 36.9 0.1 50.9 14.1 14 36.9 14 50.9-0.1L512 435l154.3 154.8c14 14.1 36.8 14.1 50.9 0.1 14.1-14 14.1-36.8 0.1-50.9L562.8 384 717.3 229.10000000000002z"  horiz-adv-x="1024" />

    
    <glyph glyph-name="close-o" unicode="&#61024;" d="M717.2 589.8c-14.1 14-36.9 14-50.9-0.1L512 435 357.7 589.7c-14 14.1-36.8 14.1-50.9 0.1-14.1-14-14.1-36.8-0.1-50.9L461.2 384 306.7 229.10000000000002c-14-14.1-14-36.9 0.1-50.9 7-7 16.2-10.5 25.4-10.5 9.2 0 18.5 3.5 25.5 10.6L512 333l154.3-154.8c7-7.1 16.3-10.6 25.5-10.6 9.2 0 18.4 3.5 25.4 10.5 14.1 14 14.1 36.8 0.1 50.9L562.8 384l154.4 154.9C731.3 553 731.3 575.8 717.2 589.8zM512 896C229.2 896 0 666.8 0 384s229.2-512 512-512 512 229.2 512 512S794.8 896 512 896zM823.1 72.89999999999998c-40.4-40.4-87.5-72.2-139.9-94.3C629-44.39999999999998 571.4-56 512-56c-59.4 0-117 11.6-171.2 34.5-52.4 22.2-99.4 53.9-139.9 94.3-40.4 40.4-72.2 87.5-94.3 139.9C83.6 267 72 324.6 72 384c0 59.4 11.6 117 34.5 171.2 22.2 52.4 53.9 99.4 94.3 139.9 40.4 40.4 87.5 72.2 139.9 94.3C395 812.4 452.6 824 512 824c59.4 0 117-11.6 171.2-34.5 52.4-22.2 99.4-53.9 139.9-94.3 40.4-40.4 72.2-87.5 94.3-139.9C940.4 501 952 443.4 952 384c0-59.4-11.6-117-34.5-171.2C895.3 160.39999999999998 863.6 113.29999999999995 823.1 72.89999999999998z"  horiz-adv-x="1024" />

    
    <glyph glyph-name="check-of" unicode="&#61025;" d="M512 896C229.2 896 0 666.8 0 384s229.2-512 512-512 512 229.2 512 512S794.8 896 512 896zM772.3 539.6L412.8 178.89999999999998c-0.1-0.1-0.3-0.3-0.4-0.4-2.4-2.6-5.3-4.9-8.5-6.7-5.6-3.2-11.8-4.7-17.8-4.7-12.5 0-24.7 6.5-31.3 18.2L245.9 375.70000000000005c-9.9 17.3-3.9 39.3 13.4 49.1 17.3 9.9 39.3 3.9 49.1-13.4l85.4-149.5 327.5 328.5c14 14.1 36.8 14.1 50.9 0.1C786.3 576.4 786.3 553.6 772.3 539.6z"  horiz-adv-x="1024" />

    
    <glyph glyph-name="check-o" unicode="&#61026;" d="M721.3 590.4L393.8 261.9l-85.4 149.5c-9.9 17.3-31.8 23.3-49.1 13.4-17.3-9.9-23.3-31.8-13.4-49.1l108.8-190.5c6.6-11.6 18.8-18.2 31.3-18.2 6.1 0 12.2 1.5 17.8 4.7 3.2 1.9 6.1 4.1 8.5 6.7 0.1 0.1 0.3 0.3 0.4 0.4l359.5 360.6c14 14.1 14 36.9-0.1 50.9C758.1 604.5 735.4 604.5 721.3 590.4zM512 896C229.2 896 0 666.8 0 384s229.2-512 512-512 512 229.2 512 512S794.8 896 512 896zM823.1 72.89999999999998c-40.4-40.4-87.5-72.2-139.9-94.3C629-44.39999999999998 571.4-56 512-56c-59.4 0-117 11.6-171.2 34.5-52.4 22.2-99.4 53.9-139.9 94.3-40.4 40.4-72.2 87.5-94.3 139.9C83.6 267 72 324.6 72 384c0 59.4 11.6 117 34.5 171.2 22.2 52.4 53.9 99.4 94.3 139.9 40.4 40.4 87.5 72.2 139.9 94.3C395 812.4 452.6 824 512 824c59.4 0 117-11.6 171.2-34.5 52.4-22.2 99.4-53.9 139.9-94.3 40.4-40.4 72.2-87.5 94.3-139.9C940.4 501 952 443.4 952 384c0-59.4-11.6-117-34.5-171.2C895.3 160.39999999999998 863.6 113.29999999999995 823.1 72.89999999999998z"  horiz-adv-x="1024" />

    
    <glyph glyph-name="check" unicode="&#61027;" d="M328 96.3c-1.8 0-3.5 0.1-5.3 0.4-12.4 1.7-23.2 9-29.4 19.8L134 395.2c-11 19.2-4.3 43.6 14.9 54.6 19.2 11 43.6 4.3 54.6-14.9l133.2-233.2 491 492.5c15.6 15.6 40.9 15.7 56.6 0.1 15.6-15.6 15.7-40.9 0.1-56.6L358.2 109.9l-1.9-1.9C348.7 100.4 338.5 96.3 328 96.3z"  horiz-adv-x="1024" />

    
    <glyph glyph-name="close" unicode="&#61028;" d="M567.7 381.1l254.8 254.6c15.4 15.4 15.4 40.3 0 55.6-15.4 15.4-40.3 15.4-55.6 0L512 436.8 257.1 691.4c-15.4 15.4-40.3 15.4-55.6 0-15.4-15.4-15.4-40.3 0-55.6l254.8-254.6L201.5 126.5c-15.4-15.4-15.4-40.3 0-55.6 7.7-7.7 17.8-11.5 27.8-11.5 10.1 0 20.1 3.8 27.8 11.5L512 325.5l254.9-254.7c7.7-7.7 17.7-11.5 27.8-11.5 10.1 0 20.1 3.8 27.8 11.5 15.4 15.4 15.4 40.3 0 55.6L567.7 381.1z"  horiz-adv-x="1024" />

    
    <glyph glyph-name="service" unicode="&#61029;" d="M838 578.8c-4.3 17.9-10.2 35.4-17.5 52.2-17 39.2-41.3 74.4-72.4 104.7-30.9 30.1-67 53.8-107.1 70.4-41.6 17.1-85.7 25.8-131 25.8-45.2 0-89.3-8.7-130.9-25.8-40.1-16.5-76.1-40.2-107.1-70.4-31-30.2-55.4-65.4-72.4-104.7-7.4-17-13.4-35-17.9-53.5-15.8-5.3-30.7-13-44.4-22.8-14.8-10.6-27.8-23.4-38.6-38.1C76 486.1 64 449.7 64 411.4c0-46.5 18.2-90.4 51.3-123.6 24.3-24.3 54.5-40.8 87.1-47.6 2.4-0.5 4.9-0.8 7.4-0.8 9.4 0 18.6 3.8 25.2 10.6 6.7 6.7 10.3 15.7 10.2 25.2l-1.5 227.1c0 68.9 27.6 133.7 77.6 182.5 50.4 49.1 117.4 76.1 188.6 76.1 71.2 0 138.2-27 188.6-76 50-48.8 77.6-113.6 77.6-182.5l0-236.8c0-68.9-27.6-133.7-77.6-182.5-21.2-20.7-45.3-37.5-71.8-50 1.2 7.2 1.7 14.5 1.6 21.9-0.7 29.9-12.7 58.1-33.9 79.4-21.2 21.3-49.3 33.5-79.2 34.3-1 0-2 0-3 0-31 0-60.2-12.1-82.2-34.1-22-22-34.1-51.2-34.1-82.2 0-30.6 11.8-59.6 33.4-81.5 21.5-21.9 50.1-34.2 80.7-34.8 0.1 0 0.1 0 0.2 0l1.4 0 0.7 0 1.8 0 0.7 0 0.3 0c0 0 0.1 0 0.1 0 43.7 0.6 86.1 9.3 125.9 25.8 40.1 16.5 76.1 40.2 107.1 70.4 31 30.2 55.4 65.4 72.4 104.7 15.2 35.1 24 72.3 26.2 110.7 23.2 8.7 44.1 22.3 62 40.3 33.1 33.1 51.3 77 51.3 123.5C960 488.7 910.1 556.8 838 578.8zM81.7 355.29999999999995c0.9-2.5 1.9-5.1 2.9-7.6C83.6 350.20000000000005 82.6 352.70000000000005 81.7 355.29999999999995zM91.6 333.1c1.7-3.1 3.5-6.2 5.3-9.2C95.1 326.9 93.3 329.9 91.6 333.1zM159.9 332.4c-1 1-2 2-2.9 3C157.9 334.4 158.9 333.4 159.9 332.4c0.8-0.8 1.6-1.6 2.4-2.4C161.5 330.79999999999995 160.7 331.6 159.9 332.4zM172.8 331.5c-2.5 2.1-4.9 4.3-7.2 6.6-19.7 19.7-30.6 45.8-30.6 73.3 0 18.5 4.8 36.7 13.8 52.6 6.2 11 14.4 20.7 24 28.6L172.8 331.5zM180.8 315.9c-0.9 0.6-1.9 1.2-2.8 1.8C178.9 317 179.9 316.4 180.8 315.9L180.8 315.9zM188.4 571.3L188.4 571.3c1 4.3 2.1 8.6 3.2 12.9C190.4 579.9 189.3 575.6 188.4 571.3zM204.1 248.10000000000002c-3.4 0.7-6.7 1.5-10 2.4C197.4 249.70000000000005 200.7 248.79999999999995 204.1 248.10000000000002c0.5-0.1 1-0.2 1.5-0.3C205.1 247.89999999999998 204.6 248 204.1 248.10000000000002zM209.8 247.5c-0.2 0-0.4 0-0.5 0 0.3 0 0.6 0 0.9 0C210.1 247.5 209.9 247.5 209.8 247.5zM237.2 273.70000000000005c0 0.5 0 1 0 1.5l-1.5 227.1 1.5-227.1C237.3 274.70000000000005 237.3 274.20000000000005 237.2 273.70000000000005zM307.2 755.7c3.3 2.5 6.6 5 10 7.3C313.9 760.7 310.5 758.3 307.2 755.7zM382.1 798.7c-20.4-8.4-39.7-18.7-57.8-30.8C342.4 780 361.7 790.3 382.1 798.7c1.5 0.6 3.1 1.2 4.6 1.8C385.1 800 383.6 799.4 382.1 798.7zM441.5 760.6c2.6 0.6 5.2 1.3 7.8 1.8C446.8 761.8 444.1 761.2 441.5 760.6zM742.5 730c-30.2 29.5-65.5 52.6-104.6 68.7-1.5 0.6-3.1 1.2-4.6 1.8 1.5-0.6 3.1-1.2 4.6-1.8C677 782.6 712.2 759.5 742.5 730c1.9-1.8 3.8-3.7 5.6-5.6C746.2 726.3 744.4 728.1 742.5 730zM754 718.2c3.2-3.4 6.3-6.9 9.3-10.4C760.3 711.3 757.2 714.8 754 718.2zM764.8 705.9c2.7-3.2 5.3-6.5 7.9-9.8C770.2 699.4 767.5 702.7 764.8 705.9zM403.8 52.39999999999998L403.8 52.39999999999998c0 0.9 0 1.9 0 2.8C403.8 54.200000000000045 403.8 53.299999999999955 403.8 52.39999999999998zM512.1 160.70000000000005c0.9 0 1.9 0 2.8 0C514 160.70000000000005 513 160.70000000000005 512.1 160.70000000000005 512.1 160.70000000000005 512.1 160.70000000000005 512.1 160.70000000000005zM544.5 20.700000000000045c-8.2-8.4-19.1-13.3-30.8-13.7l-2.2 0c-24.6 0.3-44.7 20.6-44.7 45.3 0 25 20.3 45.3 45.3 45.3 25 0 45.3-20.3 45.3-45.3C557.3 40.5 552.8 29.200000000000045 544.5 20.700000000000045zM564.8 44.299999999999955c0.4 2.6 0.6 5.3 0.6 8 0 0.9 0 1.8-0.1 2.7 0-0.9 0.1-1.8 0.1-2.7C565.4 49.60000000000002 565.2 46.89999999999998 564.8 44.299999999999955zM615.1 19.299999999999955c0.3 1 0.6 2 0.9 3C615.7 21.299999999999955 615.4 20.299999999999955 615.1 19.299999999999955c1.5 0.6 3.1 1.3 4.6 1.9C618.2 20.5 616.7 19.899999999999977 615.1 19.299999999999955zM742.5 38c-2-2-4.1-3.9-6.1-5.8C738.4 34.10000000000002 740.5 36.10000000000002 742.5 38c1.9 1.8 3.8 3.7 5.6 5.6C746.2 41.700000000000045 744.4 39.89999999999998 742.5 38zM784.1 265.6c0-4.4-0.1-8.7-0.3-13.1C784 256.9 784.1 261.20000000000005 784.1 265.6l0 236.8c0 1.9 0 3.9-0.1 5.8 0-1.9 0.1-3.9 0.1-5.8L784.1 265.6zM813.1 140.20000000000005c-2.1-4.8-4.3-9.5-6.6-14.2C808.9 130.70000000000005 811.1 135.39999999999998 813.1 140.20000000000005c0.7 1.7 1.5 3.4 2.2 5.1C814.6 143.60000000000002 813.9 141.89999999999998 813.1 140.20000000000005zM813.1 627.8c-2.1 4.8-4.3 9.5-6.6 14.2C808.9 637.3 811.1 632.6 813.1 627.8c1-2.2 1.9-4.5 2.8-6.8C815.1 623.3 814.1 625.6 813.1 627.8zM831.3 572.5c-0.5 2.1-1 4.1-1.5 6.1C830.3 576.6 830.8 574.5 831.3 572.5L831.3 572.5zM839.1 510.4c4-2.2 7.9-4.6 11.6-7.3C847 505.8 843.1 508.2 839.1 510.4 839.1 510.4 839.1 510.4 839.1 510.4zM864.1 332.4c-7.6-7.6-16-13.9-24.9-18.9l0 0C848.1 318.5 856.5 324.9 864.1 332.4c0.5 0.5 0.9 1 1.4 1.4C865 333.4 864.6 332.9 864.1 332.4zM858.4 338.1c-3.6-3.6-7.3-6.8-11.3-9.8L847.1 495.8c10.7-8 19.9-18.1 26.9-29.9 9.8-16.4 14.9-35.2 14.9-54.5C889 383.79999999999995 878.1 357.79999999999995 858.4 338.1zM945 459.9c-0.7 2.2-1.3 4.4-2.1 6.5C943.6 464.3 944.3 462.1 945 459.9zM935.2 485.2c1-2 1.9-4.1 2.8-6.1C937.1 481.2 936.1 483.2 935.2 485.2zM942.6 356.4c0.8 2.2 1.5 4.5 2.2 6.7C944.2 360.79999999999995 943.4 358.6 942.6 356.4z"  horiz-adv-x="1024" />

    
    <glyph glyph-name="credit-card" unicode="&#61030;" d="M951.9 766.5L72 766.5c-39.8 0-72-32.2-72-72L0 574l0-96 0-404.6c0-39.8 32.2-72 72-72l880 0c39.8 0 72 32.2 72 72L1024 478l0 96L1024 694.5C1023.9 734.3 991.6 766.5 951.9 766.5zM951.9 73.39999999999998L72 73.39999999999998 72 478l879.9 0L951.9 73.39999999999998zM72 574L72 694.5l879.9 0L951.9 574 72 574zM237 192L237 192c24.3 0 44 19.7 44 44l0 0c0 24.3-19.7 44-44 44l0 0c-24.3 0-44-19.7-44-44l0 0C193 211.70000000000005 212.7 192 237 192zM403.5 192L403.5 192c24.3 0 44 19.7 44 44l0 0c0 24.3-19.7 44-44 44l0 0c-24.3 0-44-19.7-44-44l0 0C359.5 211.70000000000005 379.2 192 403.5 192z"  horiz-adv-x="1024" />

    
    <glyph glyph-name="code" unicode="&#61031;" d="M888.5 832.5l-753 0c-39.8 0-72-32.2-72-72l0-753.1c0-39.8 32.2-72 72-72l753.1 0c39.8 0 72 32.2 72 72L960.6 760.5C960.5 800.3 928.2 832.5 888.5 832.5zM888.5 7.399999999999977l-753 0L135.5 760.5l753 0L888.5 7.399999999999977zM203.2 357.79999999999995c7-7 16.2-10.5 25.4-10.5 9.2 0 18.5 3.5 25.5 10.6l140.4 140.9c14 14 14 36.6 0.1 50.7L254.2 691.7c-14 14.1-36.8 14.3-50.9 0.3-14.1-14-14.3-36.8-0.3-50.9l115.3-116.8L203.1 408.7C189.1 394.6 189.1 371.9 203.2 357.79999999999995zM382.6 383.70000000000005c0-19.9 16.1-36 35.9-36.1l198.9-0.3c0 0 0 0 0.1 0 19.9 0 36 16.1 36 35.9 0 19.9-16.1 36-35.9 36.1l-198.9 0.3c0 0 0 0-0.1 0C398.8 419.6 382.7 403.5 382.6 383.70000000000005z"  horiz-adv-x="1024" />

    
    <glyph glyph-name="book" unicode="&#61032;" d="M822.5 832.5 562.6 832.5l-72 0-121 0-72 0-93.1 0c-39.8 0-72-32.2-72-72l0-753.1c0-39.8 32.2-72 72-72l618.1 0c39.8 0 72 32.2 72 72L894.6 760.5C894.5 800.3 862.2 832.5 822.5 832.5zM490.6 760.5l0-209.9-8.7 8.7-33.3 33.3c-9.5 9.5-25 9.6-34.6 0.1l-44.4-43.9L369.6 760.5 490.6 760.5zM297.6 760.5l0-277.3c0-19.7 15.9-35.6 35.6-35.6l0 0c23.3 0 45.7 9.2 62.3 25.6l35.5 35.2 34.9-34.9c15.9-15.9 37.3-25.2 59.8-25.9l1.4 0c19.7 0 35.6 15.9 35.6 35.6L562.7 760.5l259.9 0 0-624.3-618 0L204.6 760.5 297.6 760.5zM204.5 7.4l0 56.8 618 0 0-56.8L204.5 7.4z"  horiz-adv-x="1024" />

    
    <glyph glyph-name="barschart" unicode="&#61033;" d="M202.6 730l0-696c0-19.9-16.1-36-36-36l0 0c-19.9 0-36 16.1-36 36L130.6 730c0 19.9 16.1 36 36 36l0 0C186.5 766 202.6 749.9 202.6 730zM166.6 70l694 0c19.9 0 36-16.1 36-36l0 0c0-19.9-16.1-36-36-36l-694 0c-19.9 0-36 16.1-36 36l0 0C130.6 53.9 146.7 70 166.6 70zM393.8 537l0-371c0-19.9-16.1-36-36-36l0 0c-19.9 0-36 16.1-36 36L321.8 537c0 19.9 16.1 36 36 36l0 0C377.7 573 393.8 556.9 393.8 537zM777.3 667l0-501c0-19.9-16.1-36-36-36l0 0c-19.9 0-36 16.1-36 36L705.3 667c0 19.9 16.1 36 36 36l0 0C761.2 703 777.3 686.9 777.3 667zM584.6 411l0-245c0-19.9-16.1-36-36-36l0 0c-19.9 0-36 16.1-36 36L512.6 411c0 19.9 16.1 36 36 36l0 0C568.4 447 584.6 430.9 584.6 411z"  horiz-adv-x="1024" />

    
    <glyph glyph-name="bars" unicode="&#61034;" d="M186.8 639.2m-63 0a63 63 0 1 0 126 0 63 63 0 1 0-126 0ZM855.7 610.2 357.9 610.2c-19.9 0-36.1 16.2-36.1 36.1l0 0c0 19.9 16.2 36.1 36.1 36.1l497.9 0c19.9 0 36.1-16.2 36.1-36.1l0 0C891.8 626.3 875.7 610.2 855.7 610.2zM186.8 384m-63 0a63 63 0 1 0 126 0 63 63 0 1 0-126 0ZM855.7 354.9 357.9 354.9c-19.9 0-36.1 16.2-36.1 36.1l0 0c0 19.9 16.2 36.1 36.1 36.1l497.9 0c19.9 0 36.1-16.2 36.1-36.1l0 0C891.8 371.1 875.7 354.9 855.7 354.9zM186.8 128.8m-63 0a63 63 0 1 0 126 0 63 63 0 1 0-126 0ZM855.7 99.7 357.9 99.7c-19.9 0-36.1 16.2-36.1 36.1l0 0c0 19.9 16.2 36.1 36.1 36.1l497.9 0c19.9 0 36.1-16.2 36.1-36.1l0 0C891.8 115.8 875.7 99.7 855.7 99.7z"  horiz-adv-x="1024" />

    
    <glyph glyph-name="question" unicode="&#61035;" d="M644.3 632.6c-39.2 41.2-94.5 64.7-151.9 64.7-54.3-0.1-105.3-21.3-143.7-59.8-38.4-38.4-59.5-89.5-59.5-143.8 0-19.9 16.1-36 36-36s36 16.1 36 36c0 72.4 58.9 131.5 131.3 131.6 0.1 0 0.2 0 0.3 0 37.5 0 73.7-15.4 99.2-42.3 22.6-23.8 34.1-54 32.4-85.3-1.4-26.6-2.7-51.7-79.7-128.7-46.3-46.3-88.2-92.4-93.8-148.8-1.9-19.8 12.5-37.4 32.3-39.4 1.2-0.1 2.4-0.2 3.6-0.2 18.3 0 34 13.9 35.8 32.5 2.9 29.5 30.1 62 73 104.9 89.4 89.4 98.3 130.8 100.7 175.7C699.2 545.1 680.7 594.4 644.3 632.6zM486 80.2m-43.2 0a43.2 43.2 0 1 0 86.4 0 43.2 43.2 0 1 0-86.4 0Z"  horiz-adv-x="1024" />

    
    <glyph glyph-name="question-of" unicode="&#61036;" d="M512 896C229.2 896 0 666.8 0 384s229.2-512 512-512 512 229.2 512 512S794.8 896 512 896zM505.5 83.39999999999998c-23.9 0-43.3 19.4-43.3 43.3s19.4 43.3 43.3 43.3c23.9 0 43.3-19.4 43.3-43.3S529.4 83.39999999999998 505.5 83.39999999999998zM691.3 505c-2.5-46.3-16.7-82.8-87.7-153.8-36-36-58.7-63-61-86.7-1.8-18.6-17.5-32.5-35.8-32.5-1.2 0-2.4 0.1-3.6 0.2-19.8 1.9-34.2 19.6-32.3 39.4 4.9 49.9 41.5 90.2 81.8 130.5 64.5 64.5 65.6 85 66.7 106.7 1.3 25.3-8 49.8-26.4 69.1-20.9 22-50.5 34.6-81.2 34.6-0.1 0-0.2 0-0.2 0-59.1-0.1-107.3-48.3-107.3-107.5 0-19.9-16.1-36-36-36s-36 16.1-36 36c0 47.9 18.6 92.9 52.4 126.8 33.8 33.9 78.8 52.6 126.7 52.7 50.5 0.1 99.3-20.7 133.8-57C677.4 593.8 693.7 550.3 691.3 505z"  horiz-adv-x="1024" />

    
    <glyph glyph-name="question-o" unicode="&#61037;" d="M512 896C229.2 896 0 666.8 0 384s229.2-512 512-512 512 229.2 512 512S794.8 896 512 896zM823.1 72.89999999999998c-40.4-40.4-87.5-72.2-139.9-94.3C629-44.39999999999998 571.4-56 512-56s-117 11.6-171.2 34.5c-52.4 22.2-99.4 53.9-139.9 94.3-40.4 40.4-72.2 87.5-94.3 139.9C83.6 267 72 324.6 72 384s11.6 117 34.5 171.2c22.2 52.4 53.9 99.4 94.3 139.9 40.4 40.4 87.5 72.2 139.9 94.3C395 812.4 452.6 824 512 824s117-11.6 171.2-34.5c52.4-22.2 99.4-53.9 139.9-94.3 40.4-40.4 72.2-87.5 94.3-139.9C940.4 501 952 443.4 952 384s-11.6-117-34.5-171.2C895.3 160.39999999999998 863.6 113.29999999999995 823.1 72.89999999999998zM545.9 371.5M506.8 232.10000000000002c-1.2 0-2.4 0.1-3.6 0.2-19.8 1.9-34.2 19.6-32.3 39.4 4.9 49.9 41.5 90.2 81.8 130.5 64.5 64.5 65.6 85 66.7 106.7 1.3 25.3-8 49.8-26.4 69.1-20.9 22-50.5 34.6-81.2 34.6-0.1 0-0.2 0-0.2 0-59.1-0.1-107.3-48.3-107.3-107.5 0-19.9-16.1-36-36-36s-36 16.1-36 36c0 47.9 18.6 92.9 52.4 126.8 33.8 33.9 78.8 52.6 126.7 52.7 50.5 0.1 99.3-20.7 133.8-57 32.1-33.8 48.5-77.3 46.1-122.5-2.5-46.3-16.7-82.8-87.7-153.8-36-36-58.7-63-61-86.7C540.8 246 525.1 232.10000000000002 506.8 232.10000000000002zM505.5 126.79999999999995m-43.3 0a43.3 43.3 0 1 1 86.6 0 43.3 43.3 0 1 1-86.6 0Z"  horiz-adv-x="1024" />

    
    <glyph glyph-name="pause" unicode="&#61038;" d="M325.5 703.5 325.5 703.5c-19.9 0-36-16.1-36-36l0-567c0-19.9 16.1-36 36-36l0 0c19.9 0 36 16.1 35 36l0 567C361.5 687.4 345.4 703.5 325.5 703.5zM698.5 703.5 698.5 703.5c-19.9 0-36-16.1-36-36l0-567c0-19.9 16.1-36 36-36l0 0c19.9 0 36 16.1 36 36l0 567C734.5 687.4 718.4 703.5 698.5 703.5z"  horiz-adv-x="1024" />

    
    <glyph glyph-name="pause-of" unicode="&#61039;" d="M512 896C229.2 896 0 666.8 0 384s229.2-512 512-512 512 229.2 512 512S794.8 896 512 896zM393 228c0-19.9-16.1-36-36-36l0 0c-19.9 0-36 16.1-36 36L321 540c0 19.9 16.1 36 36 36l0 0c19.9 0 36-16.1 36-36L393 228zM703 228c0-19.9-16.1-36-36-36l0 0c-19.9 0-36 16.1-36 36L631 540c0 19.9 16.1 36 36 36l0 0c19.9 0 36-16.1 36-36L703 228z"  horiz-adv-x="1024" />

    
    <glyph glyph-name="pause-o" unicode="&#61040;" d="M512 896C229.2 896 0 666.8 0 384s229.2-512 512-512 512 229.2 512 512S794.8 896 512 896zM823.1 72.89999999999998c-40.4-40.4-87.5-72.2-139.9-94.3C629-44.39999999999998 571.4-56 512-56c-59.4 0-117 11.6-171.2 34.5-52.4 22.2-99.4 53.9-139.9 94.3-40.4 40.4-72.2 87.5-94.3 139.9C83.6 267 72 324.6 72 384s11.6 117 34.5 171.2c22.2 52.4 53.9 99.4 94.3 139.9 40.4 40.4 87.5 72.2 139.9 94.3C395 812.4 452.6 824 512 824c59.4 0 117-11.6 171.2-34.5 52.4-22.2 99.4-53.9 139.9-94.3 40.4-40.4 72.2-87.5 94.3-139.9C940.4 501 952 443.4 952 384s-11.6-117-34.5-171.2C895.3 160.39999999999998 863.6 113.29999999999995 823.1 72.89999999999998zM357 576L357 576c-19.9 0-36-16.1-36-36l0-312c0-19.9 16.1-36 36-36l0 0c19.9 0 36 16.1 36 36L393 540C393 559.9 376.9 576 357 576zM667 576L667 576c-19.9 0-36-16.1-36-36l0-312c0-19.9 16.1-36 36-36l0 0c19.9 0 36 16.1 36 36L703 540C703 559.9 686.9 576 667 576z"  horiz-adv-x="1024" />

    
    <glyph glyph-name="swap" unicode="&#61043;" d="M193.9 481.4c-0.3 0-0.6 0-0.9 0.1-0.4 0-0.7 0.1-1.1 0.1-0.2 0-0.5 0.1-0.7 0.1-0.4 0.1-0.8 0.1-1.1 0.2-0.2 0-0.4 0.1-0.6 0.1-0.4 0.1-0.8 0.2-1.1 0.3-0.2 0-0.4 0.1-0.6 0.1-0.4 0.1-0.7 0.2-1.1 0.3-0.2 0.1-0.4 0.1-0.6 0.2-0.3 0.1-0.7 0.2-1 0.3-0.2 0.1-0.5 0.2-0.7 0.2-0.3 0.1-0.6 0.2-0.9 0.3-0.3 0.1-0.5 0.2-0.8 0.3-0.3 0.1-0.5 0.2-0.8 0.3-0.3 0.1-0.6 0.3-0.9 0.4-0.2 0.1-0.4 0.2-0.7 0.3-0.3 0.2-0.6 0.3-0.9 0.5-0.2 0.1-0.4 0.2-0.6 0.3-0.3 0.2-0.7 0.4-1 0.6-0.2 0.1-0.3 0.2-0.5 0.3-0.3 0.2-0.7 0.4-1 0.6-0.2 0.1-0.3 0.2-0.5 0.3-0.3 0.2-0.6 0.4-0.9 0.7-0.2 0.1-0.4 0.3-0.5 0.4-0.3 0.2-0.6 0.4-0.8 0.7-0.2 0.2-0.5 0.4-0.7 0.6-0.2 0.2-0.4 0.4-0.6 0.5-0.9 0.8-1.7 1.6-2.5 2.5-0.2 0.2-0.4 0.4-0.5 0.6-0.2 0.2-0.4 0.5-0.6 0.7-0.2 0.3-0.4 0.6-0.7 0.8-0.1 0.2-0.3 0.4-0.4 0.5-0.2 0.3-0.4 0.6-0.7 0.9-0.1 0.2-0.2 0.3-0.3 0.5-0.2 0.3-0.4 0.7-0.6 1-0.1 0.2-0.2 0.3-0.3 0.5-0.2 0.3-0.4 0.7-0.6 1-0.1 0.2-0.2 0.4-0.3 0.6-0.2 0.3-0.3 0.6-0.5 0.9-0.1 0.2-0.2 0.4-0.3 0.6-0.1 0.3-0.3 0.6-0.4 0.9-0.1 0.3-0.2 0.5-0.3 0.8-0.1 0.3-0.2 0.5-0.3 0.8-0.1 0.3-0.2 0.6-0.3 0.9-0.1 0.2-0.2 0.5-0.2 0.7-0.1 0.3-0.2 0.7-0.3 1-0.1 0.2-0.1 0.4-0.2 0.6-0.1 0.4-0.2 0.7-0.3 1.1 0 0.2-0.1 0.4-0.1 0.6-0.1 0.4-0.2 0.8-0.2 1.1 0 0.2-0.1 0.4-0.1 0.6-0.1 0.4-0.1 0.8-0.2 1.1 0 0.2-0.1 0.5-0.1 0.7 0 0.4-0.1 0.7-0.1 1.1 0 0.3 0 0.6-0.1 0.9 0 0.3 0 0.6-0.1 0.8-0.1 1.2-0.1 2.4 0 3.6 0 0.3 0 0.6 0.1 0.8 0 0.3 0 0.6 0.1 0.9 0 0.4 0.1 0.7 0.1 1.1 0 0.2 0.1 0.5 0.1 0.7 0.1 0.4 0.1 0.8 0.2 1.1 0 0.2 0.1 0.4 0.1 0.6 0.1 0.4 0.2 0.8 0.2 1.1 0 0.2 0.1 0.4 0.1 0.6 0.1 0.4 0.2 0.7 0.3 1.1 0.1 0.2 0.1 0.4 0.2 0.6 0.1 0.3 0.2 0.7 0.3 1 0.1 0.2 0.2 0.5 0.2 0.7 0.1 0.3 0.2 0.6 0.3 0.9 0.1 0.3 0.2 0.5 0.3 0.8 0.1 0.3 0.2 0.5 0.3 0.8 0.1 0.3 0.3 0.6 0.4 0.9 0.1 0.2 0.2 0.4 0.3 0.6 0.2 0.3 0.3 0.6 0.5 0.9 0.1 0.2 0.2 0.4 0.3 0.6 0.2 0.3 0.4 0.7 0.6 1 0.1 0.2 0.2 0.3 0.3 0.5 0.2 0.3 0.4 0.7 0.6 1 0.1 0.2 0.2 0.3 0.3 0.5 0.2 0.3 0.4 0.6 0.7 0.9 0.1 0.2 0.3 0.4 0.4 0.5 0.2 0.3 0.4 0.6 0.7 0.8 0.2 0.2 0.4 0.5 0.6 0.7 0.2 0.2 0.4 0.4 0.6 0.6 0.4 0.4 0.8 0.9 1.2 1.3l177.5 177.5c14.1 14.1 36.9 14.1 50.9 0l0 0c14.1-14.1 14.1-36.9 0-50.9l-116-116 544.1 0c19.9 0 36-16.1 36-36l0 0c0-19.9-16.1-36-36-36l-631 0c0 0 0 0 0 0-0.6 0-1.2 0-1.8 0C194.4 481.3 194.1 481.3 193.9 481.4zM830.1 286.6c0.3 0 0.6 0 0.9-0.1 0.4 0 0.7-0.1 1.1-0.1 0.2 0 0.5-0.1 0.7-0.1 0.4-0.1 0.8-0.1 1.1-0.2 0.2 0 0.4-0.1 0.6-0.1 0.4-0.1 0.8-0.2 1.1-0.3 0.2 0 0.4-0.1 0.6-0.1 0.4-0.1 0.7-0.2 1.1-0.3 0.2-0.1 0.4-0.1 0.6-0.2 0.3-0.1 0.7-0.2 1-0.3 0.2-0.1 0.5-0.2 0.7-0.2 0.3-0.1 0.6-0.2 0.9-0.3 0.3-0.1 0.5-0.2 0.8-0.3 0.3-0.1 0.5-0.2 0.8-0.3 0.3-0.1 0.6-0.3 0.9-0.4 0.2-0.1 0.4-0.2 0.7-0.3 0.3-0.2 0.6-0.3 0.9-0.5 0.2-0.1 0.4-0.2 0.6-0.3 0.3-0.2 0.7-0.4 1-0.6 0.2-0.1 0.3-0.2 0.5-0.3 0.3-0.2 0.7-0.4 1-0.6 0.2-0.1 0.3-0.2 0.5-0.3 0.3-0.2 0.6-0.4 0.9-0.7 0.2-0.1 0.4-0.3 0.5-0.4 0.3-0.2 0.6-0.4 0.8-0.7 0.2-0.2 0.5-0.4 0.7-0.6 0.2-0.2 0.4-0.4 0.6-0.5 0.9-0.8 1.7-1.6 2.5-2.5 0.2-0.2 0.4-0.4 0.5-0.6 0.2-0.2 0.4-0.5 0.6-0.7 0.2-0.3 0.4-0.6 0.7-0.8 0.1-0.2 0.3-0.4 0.4-0.5 0.2-0.3 0.4-0.6 0.7-0.9 0.1-0.2 0.2-0.3 0.3-0.5 0.2-0.3 0.4-0.7 0.6-1 0.1-0.2 0.2-0.3 0.3-0.5 0.2-0.3 0.4-0.7 0.6-1 0.1-0.2 0.2-0.4 0.3-0.6 0.2-0.3 0.3-0.6 0.5-0.9 0.1-0.2 0.2-0.4 0.3-0.6 0.1-0.3 0.3-0.6 0.4-0.9 0.1-0.3 0.2-0.5 0.3-0.8 0.1-0.3 0.2-0.5 0.3-0.8 0.1-0.3 0.2-0.6 0.3-0.9 0.1-0.2 0.2-0.5 0.2-0.7 0.1-0.3 0.2-0.7 0.3-1 0.1-0.2 0.1-0.4 0.2-0.6 0.1-0.4 0.2-0.7 0.3-1.1 0-0.2 0.1-0.4 0.1-0.6 0.1-0.4 0.2-0.8 0.2-1.1 0-0.2 0.1-0.4 0.1-0.6 0.1-0.4 0.1-0.8 0.2-1.1 0-0.2 0.1-0.5 0.1-0.7 0-0.4 0.1-0.7 0.1-1.1 0-0.3 0-0.6 0.1-0.9 0-0.3 0-0.6 0.1-0.8 0.1-1.2 0.1-2.4 0-3.6 0-0.3 0-0.6-0.1-0.8 0-0.3 0-0.6-0.1-0.9 0-0.4-0.1-0.7-0.1-1.1 0-0.2-0.1-0.5-0.1-0.7-0.1-0.4-0.1-0.8-0.2-1.1 0-0.2-0.1-0.4-0.1-0.6-0.1-0.4-0.2-0.8-0.2-1.1 0-0.2-0.1-0.4-0.1-0.6-0.1-0.4-0.2-0.7-0.3-1.1-0.1-0.2-0.1-0.4-0.2-0.6-0.1-0.3-0.2-0.7-0.3-1-0.1-0.2-0.2-0.5-0.2-0.7-0.1-0.3-0.2-0.6-0.3-0.9-0.1-0.3-0.2-0.5-0.3-0.8-0.1-0.3-0.2-0.5-0.3-0.8-0.1-0.3-0.3-0.6-0.4-0.9-0.1-0.2-0.2-0.4-0.3-0.6-0.2-0.3-0.3-0.6-0.5-0.9-0.1-0.2-0.2-0.4-0.3-0.6-0.2-0.3-0.4-0.7-0.6-1-0.1-0.2-0.2-0.3-0.3-0.5-0.2-0.3-0.4-0.7-0.6-1-0.1-0.2-0.2-0.3-0.3-0.5-0.2-0.3-0.4-0.6-0.7-0.9-0.1-0.2-0.3-0.4-0.4-0.5-0.2-0.3-0.4-0.6-0.7-0.8-0.2-0.2-0.4-0.5-0.6-0.7-0.2-0.2-0.4-0.4-0.6-0.6-0.4-0.4-0.8-0.9-1.2-1.3L675.5 47.8c-14.1-14.1-36.9-14.1-50.9 0l0 0c-14.1 14.1-14.1 36.9 0 50.9l116 116L196.5 214.7c-19.9 0-36 16.1-36 36l0 0c0 19.9 16.1 36 36 36l631 0c0 0 0 0 0 0 0.6 0 1.2 0 1.8 0C829.6 286.7 829.9 286.7 830.1 286.6z"  horiz-adv-x="1024" />

    
    <glyph glyph-name="swap-left" unicode="&#61044;" d="M163.9 320.4c-0.3 0-0.6 0-0.9 0.1-0.4 0-0.7 0.1-1.1 0.1-0.2 0-0.5 0.1-0.7 0.1-0.4 0.1-0.8 0.1-1.1 0.2-0.2 0-0.4 0.1-0.6 0.1-0.4 0.1-0.8 0.2-1.1 0.3-0.2 0-0.4 0.1-0.6 0.1-0.4 0.1-0.7 0.2-1.1 0.3-0.2 0.1-0.4 0.1-0.6 0.2-0.3 0.1-0.7 0.2-1 0.3-0.2 0.1-0.5 0.2-0.7 0.2-0.3 0.1-0.6 0.2-0.9 0.3-0.3 0.1-0.5 0.2-0.8 0.3-0.3 0.1-0.5 0.2-0.8 0.3-0.3 0.1-0.6 0.3-0.9 0.4-0.2 0.1-0.4 0.2-0.7 0.3-0.3 0.2-0.6 0.3-0.9 0.5-0.2 0.1-0.4 0.2-0.6 0.3-0.3 0.2-0.7 0.4-1 0.6-0.2 0.1-0.3 0.2-0.5 0.3-0.3 0.2-0.7 0.4-1 0.6-0.2 0.1-0.3 0.2-0.5 0.3-0.3 0.2-0.6 0.4-0.9 0.7-0.2 0.1-0.4 0.3-0.5 0.4-0.3 0.2-0.6 0.4-0.8 0.7-0.2 0.2-0.5 0.4-0.7 0.6-0.2 0.2-0.4 0.4-0.6 0.5-0.9 0.8-1.7 1.6-2.5 2.5-0.2 0.2-0.4 0.4-0.5 0.6-0.2 0.2-0.4 0.5-0.6 0.7-0.2 0.3-0.4 0.6-0.7 0.8-0.1 0.2-0.3 0.4-0.4 0.5-0.2 0.3-0.4 0.6-0.7 0.9-0.1 0.2-0.2 0.3-0.3 0.5-0.2 0.3-0.4 0.7-0.6 1-0.1 0.2-0.2 0.3-0.3 0.5-0.2 0.3-0.4 0.7-0.6 1-0.1 0.2-0.2 0.4-0.3 0.6-0.2 0.3-0.3 0.6-0.5 0.9-0.1 0.2-0.2 0.4-0.3 0.6-0.1 0.3-0.3 0.6-0.4 0.9-0.1 0.3-0.2 0.5-0.3 0.8-0.1 0.3-0.2 0.5-0.3 0.8-0.1 0.3-0.2 0.6-0.3 0.9-0.1 0.2-0.2 0.5-0.2 0.7-0.1 0.3-0.2 0.7-0.3 1-0.1 0.2-0.1 0.4-0.2 0.6-0.1 0.4-0.2 0.7-0.3 1.1 0 0.2-0.1 0.4-0.1 0.6-0.1 0.4-0.2 0.8-0.2 1.1 0 0.2-0.1 0.4-0.1 0.6-0.1 0.4-0.1 0.8-0.2 1.1 0 0.2-0.1 0.5-0.1 0.7 0 0.4-0.1 0.7-0.1 1.1 0 0.3 0 0.6-0.1 0.9 0 0.3 0 0.6-0.1 0.8-0.1 1.2-0.1 2.4 0 3.6 0 0.3 0 0.6 0.1 0.8 0 0.3 0 0.6 0.1 0.9 0 0.4 0.1 0.7 0.1 1.1 0 0.2 0.1 0.5 0.1 0.7 0.1 0.4 0.1 0.8 0.2 1.1 0 0.2 0.1 0.4 0.1 0.6 0.1 0.4 0.2 0.8 0.2 1.1 0 0.2 0.1 0.4 0.1 0.6 0.1 0.4 0.2 0.7 0.3 1.1 0.1 0.2 0.1 0.4 0.2 0.6 0.1 0.3 0.2 0.7 0.3 1 0.1 0.2 0.2 0.5 0.2 0.7 0.1 0.3 0.2 0.6 0.3 0.9 0.1 0.3 0.2 0.5 0.3 0.8 0.1 0.3 0.2 0.5 0.3 0.8 0.1 0.3 0.3 0.6 0.4 0.9 0.1 0.2 0.2 0.4 0.3 0.6 0.2 0.3 0.3 0.6 0.5 0.9 0.1 0.2 0.2 0.4 0.3 0.6 0.2 0.3 0.4 0.7 0.6 1 0.1 0.2 0.2 0.3 0.3 0.5 0.2 0.3 0.4 0.7 0.6 1 0.1 0.2 0.2 0.3 0.3 0.5 0.2 0.3 0.4 0.6 0.7 0.9 0.1 0.2 0.3 0.4 0.4 0.5 0.2 0.3 0.4 0.6 0.7 0.8 0.2 0.2 0.4 0.5 0.6 0.7 0.2 0.2 0.4 0.4 0.6 0.6 0.4 0.4 0.8 0.9 1.2 1.3l177.5 177.5c14.1 14.1 36.9 14.1 50.9 0l0 0c14.1-14.1 14.1-36.9 0-50.9l-116-116 544.1 0c19.9 0 36-16.1 36-36l0 0c0-19.9-16.1-36-36-36l-631 0c0 0 0 0 0 0-0.6 0-1.2 0-1.8 0C164.4 320.29999999999995 164.1 320.4 163.9 320.4z"  horiz-adv-x="1024" />

    
    <glyph glyph-name="swap-right" unicode="&#61045;" d="M830.1 320.4c0.3 0 0.6 0 0.9 0.1 0.4 0 0.7 0.1 1.1 0.1 0.2 0 0.5 0.1 0.7 0.1 0.4 0.1 0.8 0.1 1.1 0.2 0.2 0 0.4 0.1 0.6 0.1 0.4 0.1 0.8 0.2 1.1 0.3 0.2 0 0.4 0.1 0.6 0.1 0.4 0.1 0.7 0.2 1.1 0.3 0.2 0.1 0.4 0.1 0.6 0.2 0.3 0.1 0.7 0.2 1 0.3 0.2 0.1 0.5 0.2 0.7 0.2 0.3 0.1 0.6 0.2 0.9 0.3 0.3 0.1 0.5 0.2 0.8 0.3 0.3 0.1 0.5 0.2 0.8 0.3 0.3 0.1 0.6 0.3 0.9 0.4 0.2 0.1 0.4 0.2 0.7 0.3 0.3 0.2 0.6 0.3 0.9 0.5 0.2 0.1 0.4 0.2 0.6 0.3 0.3 0.2 0.7 0.4 1 0.6 0.2 0.1 0.3 0.2 0.5 0.3 0.3 0.2 0.7 0.4 1 0.6 0.2 0.1 0.3 0.2 0.5 0.3 0.3 0.2 0.6 0.4 0.9 0.7 0.2 0.1 0.4 0.3 0.5 0.4 0.3 0.2 0.6 0.4 0.8 0.7 0.2 0.2 0.5 0.4 0.7 0.6 0.2 0.2 0.4 0.4 0.6 0.5 0.9 0.8 1.7 1.6 2.5 2.5 0.2 0.2 0.4 0.4 0.5 0.6 0.2 0.2 0.4 0.5 0.6 0.7 0.2 0.3 0.4 0.6 0.7 0.8 0.1 0.2 0.3 0.4 0.4 0.5 0.2 0.3 0.4 0.6 0.7 0.9 0.1 0.2 0.2 0.3 0.3 0.5 0.2 0.3 0.4 0.7 0.6 1 0.1 0.2 0.2 0.3 0.3 0.5 0.2 0.3 0.4 0.7 0.6 1 0.1 0.2 0.2 0.4 0.3 0.6 0.2 0.3 0.3 0.6 0.5 0.9 0.1 0.2 0.2 0.4 0.3 0.6 0.1 0.3 0.3 0.6 0.4 0.9 0.1 0.3 0.2 0.5 0.3 0.8 0.1 0.3 0.2 0.5 0.3 0.8 0.1 0.3 0.2 0.6 0.3 0.9 0.1 0.2 0.2 0.5 0.2 0.7 0.1 0.3 0.2 0.7 0.3 1 0.1 0.2 0.1 0.4 0.2 0.6 0.1 0.4 0.2 0.7 0.3 1.1 0 0.2 0.1 0.4 0.1 0.6 0.1 0.4 0.2 0.8 0.2 1.1 0 0.2 0.1 0.4 0.1 0.6 0.1 0.4 0.1 0.8 0.2 1.1 0 0.2 0.1 0.5 0.1 0.7 0 0.4 0.1 0.7 0.1 1.1 0 0.3 0 0.6 0.1 0.9 0 0.3 0 0.6 0.1 0.8 0.1 1.2 0.1 2.4 0 3.6 0 0.3 0 0.6-0.1 0.8 0 0.3 0 0.6-0.1 0.9 0 0.4-0.1 0.7-0.1 1.1 0 0.2-0.1 0.5-0.1 0.7-0.1 0.4-0.1 0.8-0.2 1.1 0 0.2-0.1 0.4-0.1 0.6-0.1 0.4-0.2 0.8-0.2 1.1 0 0.2-0.1 0.4-0.1 0.6-0.1 0.4-0.2 0.7-0.3 1.1-0.1 0.2-0.1 0.4-0.2 0.6-0.1 0.3-0.2 0.7-0.3 1-0.1 0.2-0.2 0.5-0.2 0.7-0.1 0.3-0.2 0.6-0.3 0.9-0.1 0.3-0.2 0.5-0.3 0.8-0.1 0.3-0.2 0.5-0.3 0.8-0.1 0.3-0.3 0.6-0.4 0.9-0.1 0.2-0.2 0.4-0.3 0.6-0.2 0.3-0.3 0.6-0.5 0.9-0.1 0.2-0.2 0.4-0.3 0.6-0.2 0.3-0.4 0.7-0.6 1-0.1 0.2-0.2 0.3-0.3 0.5-0.2 0.3-0.4 0.7-0.6 1-0.1 0.2-0.2 0.3-0.3 0.5-0.2 0.3-0.4 0.6-0.7 0.9-0.1 0.2-0.3 0.4-0.4 0.5-0.2 0.3-0.4 0.6-0.7 0.8-0.2 0.2-0.4 0.5-0.6 0.7-0.2 0.2-0.4 0.4-0.6 0.6-0.4 0.4-0.8 0.9-1.2 1.3L675.5 559.2c-14.1 14.1-36.9 14.1-50.9 0l0 0c-14.1-14.1-14.1-36.9 0-50.9l116-116L196.5 392.3c-19.9 0-36-16.1-36-36l0 0c0-19.9 16.1-36 36-36l631 0c0 0 0 0 0 0 0.6 0 1.2 0 1.8 0C829.6 320.29999999999995 829.9 320.4 830.1 320.4z"  horiz-adv-x="1024" />

    
    <glyph glyph-name="plus-s" unicode="&#61046;" d="M888.5 760.5L888.5 760.5 888.5 760.5l0-753.1 0 0-753 0 0 0L135.5 760.5l0 0L888.5 760.5M888.5 832.5l-753 0c-39.8 0-72-32.2-72-72l0-753.1c0-39.8 32.2-72 72-72l753.1 0c39.8 0 72 32.2 72 72L960.6 760.5C960.5 800.3 928.3 832.5 888.5 832.5L888.5 832.5zM732 419.5L548.5 419.5 548.5 603c0 19.9-16.1 36-36 36l0 0c-19.9 0-36-16.1-36-36l0-183.5L292 419.5c-19.9 0-36-16.1-36-36l0 0c0-19.9 16.1-36 36-36l184.5 0L476.5 165c0-19.9 16.1-36 36-36l0 0c19.9 0 36 16.1 36 36L548.5 347.5 732 347.5c19.9 0 36 16.1 36 36l0 0C768 403.4 751.9 419.5 732 419.5z"  horiz-adv-x="1024" />

    
    <glyph glyph-name="frown-f" unicode="&#61047;" d="M512 896C229.2 896 0 666.8 0 384s229.2-512 512-512 512 229.2 512 512S794.8 896 512 896zM254.2 453.6c-33.1 0-60 26.9-60 60s26.9 60 60 60 60-26.9 60-60S287.3 453.6 254.2 453.6zM640.3 130.5c-19.9 0-36 16.1-36 36 0 50.9-41.4 92.3-92.3 92.3-50.9 0-92.3-41.4-92.3-92.3 0-19.9-16.1-36-36-36s-36 16.1-36 36c0 90.6 73.7 164.3 164.3 164.3 90.6 0 164.3-73.7 164.3-164.3C676.3 146.60000000000002 660.2 130.5 640.3 130.5zM769.5 453.6c-33.1 0-60 26.9-60 60s26.9 60 60 60 60-26.9 60-60S802.6 453.6 769.5 453.6z"  horiz-adv-x="1024" />

    
    <glyph glyph-name="ellipsis" unicode="&#61048;" d="M257.2 408m-64 0a64 64 0 1 0 128 0 64 64 0 1 0-128 0ZM513 408m-64 0a64 64 0 1 0 128 0 64 64 0 1 0-128 0ZM768.8 408m-64 0a64 64 0 1 0 128 0 64 64 0 1 0-128 0Z"  horiz-adv-x="1024" />

    
    <glyph glyph-name="copy" unicode="&#61049;" d="M879.8 649.4l-162.2 166C707.3 826 693.1 832 678.5 832L361.2 832c-17.1 0-33.6-6.3-46.5-17.7-11.1-9.8-18.9-22.8-22.5-37.2l-59.9 0c-57.5 0-104.3-47.9-104.3-106.7l0-627.6c0-58.9 46.8-106.7 104.3-106.7L740-63.9c57.5 0 104.3 47.9 104.3 106.7l0 62.8c30.3 8.7 51.7 37.1 51.7 69.9L896 609.4C896 624.4 890.3 638.6 879.8 649.4zM712.2 809.9l81.1-83L712.2 809.9c-1 1.1-2.1 2.1-3.2 3C710 811.9 711.1 810.9 712.2 809.9zM810.4 631.6 810.4 631.6l-66.8 68.3L810.4 631.6zM684.5 749.3l107.4-109.9L684.5 639.4 684.5 749.3zM676.8 768.3 676.8 768.3l0-136.7 0 0L676.8 768.3zM205.2-52.2c1.8-0.5 3.5-1 5.3-1.4C208.7-53.2 206.9-52.7 205.2-52.2zM232.3-56.1c-4.2 0-8.3 0.3-12.3 0.8C224-55.9 228.1-56.1 232.3-56.1L232.3-56.1zM775.3 42.6c0-19.8-15.8-36-35.2-36L232.3 6.6c-19.4 0-35.2 16.1-35.2 36L197.1 670.2c0 19.8 15.8 36 35.2 36l57.8 0 0-530.8c0-40.1 31.9-72.8 71.1-72.8l414.1 0L775.3 42.6zM827 175.5c0-1.1-0.9-2-2-2L361.2 173.5c-1.1 0-2 0.9-2 2L359.2 759.2c0 1.1 0.9 2 2 2l250.6 0L611.8 604c0-19.5 15.5-35.4 34.6-35.4l30.5 0L827 568.6 827 175.5zM836.7 111.8 836.7 111.8c3 0.6 6 1.4 8.8 2.4C842.6 113.1 839.7 112.3 836.7 111.8zM593.1 280.9 485.6 280.9c-19.1 0-34.6-15.9-34.6-35.4s15.5-35.4 34.6-35.4l107.5 0c19.1 0 34.6 15.9 34.6 35.4S612.2 280.9 593.1 280.9zM699.8 391.8 486 391.8c-19.1 0-34.6-15.9-34.6-35.4 0-19.5 15.5-35.4 34.6-35.4l213.8 0c19.1 0 34.6 15.9 34.6 35.4C734.4 375.9 718.9 391.8 699.8 391.8zM459.1 356.4c0 0.6 0 1.3 0.1 1.9C459.1 357.7 459.1 357.1 459.1 356.4c0-2.9 0.4-5.6 1.2-8.2C459.5 350.8 459.1 353.6 459.1 356.4zM699.8 384 486 384c-1.4 0-2.8-0.1-4.1-0.3 1.3 0.2 2.7 0.3 4.1 0.3L699.8 384c1.3 0 2.6-0.1 3.9-0.3C702.4 383.9 701.1 384 699.8 384zM712 332c1.3 0.7 2.6 1.5 3.8 2.4C714.7 333.5 713.4 332.7 712 332zM451.4 467.4c0-19.5 15.5-35.4 34.6-35.4l213.8 0c19.1 0 34.6 15.9 34.6 35.4s-15.5 35.4-34.6 35.4L486 502.8C466.9 502.7 451.4 486.9 451.4 467.4zM459.2 465.5c0 0.6-0.1 1.2-0.1 1.9 0 1.3 0.1 2.7 0.3 3.9-0.2-1.3-0.3-2.6-0.3-3.9C459.1 466.7 459.1 466.1 459.2 465.5z"  horiz-adv-x="1024" />

    
    <glyph glyph-name="clock-f" unicode="&#61062;" d="M512 896C229.2 896 0 666.8 0 384s229.2-512 512-512 512 229.2 512 512S794.8 896 512 896zM769 356c0-19.9-16.1-36-36-36L548 320l0 0c-39.8 0-72 32.2-72 72l0 0L476 632c0 19.9 16.1 36 36 36l0 0c19.9 0 36-16.1 36-36l0-240 185 0C752.9 392 769 375.9 769 356L769 356z"  horiz-adv-x="1024" />

    
    <glyph glyph-name="clock" unicode="&#61063;" d="M512 896C229.2 896 0 666.8 0 384s229.2-512 512-512 512 229.2 512 512S794.8 896 512 896zM823.1 72.89999999999998c-40.4-40.4-87.5-72.2-139.9-94.3C629-44.39999999999998 571.4-56 512-56s-117 11.6-171.2 34.5c-52.4 22.2-99.4 53.9-139.9 94.3-40.4 40.4-72.2 87.5-94.3 139.9C83.6 267 72 324.6 72 384s11.6 117 34.5 171.2c22.2 52.4 53.9 99.4 94.3 139.9 40.4 40.4 87.5 72.2 139.9 94.3C395 812.4 452.6 824 512 824s117-11.6 171.2-34.5c52.4-22.2 99.4-53.9 139.9-94.3 40.4-40.4 72.2-87.5 94.3-139.9C940.4 501 952 443.4 952 384s-11.6-117-34.5-171.2C895.3 160.39999999999998 863.6 113.29999999999995 823.1 72.89999999999998zM733 392L548 392 548 632c0 19.9-16.1 36-36 36l0 0c-19.9 0-36-16.1-36-36l0-240 0 0c0-39.8 32.2-72 72-72l0 0 185 0c19.9 0 36 16.1 36 36l0 0C769 375.9 752.9 392 733 392z"  horiz-adv-x="1024" />

    
    <glyph glyph-name="menu-fold" unicode="&#61065;" d="M96.8 695.2l828.1 0c19.9 0 36 16.1 36 36s-16.1 36-36 36L96.8 767.2c-19.9 0-36-16.1-36-36S76.9 695.2 96.8 695.2zM922.9 450.2L357.8 450.2c-19.9 0-36-16.1-36-36s16.1-36 36-36l565.1 0c19.9 0 36 16.1 36 36S942.7 450.2 922.9 450.2zM924.9 72.20000000000005L99.8 72.20000000000005c-19.9 0-36-16.1-36-36s16.1-36 36-36l825.1 0c19.9 0 36 16.1 36 36S944.7 72.20000000000005 924.9 72.20000000000005zM195.1 281c7-6.9 16.1-10.3 25.2-10.3 9.3 0 18.6 3.6 25.7 10.8 13.9 14.2 13.8 37-0.4 50.9l-95.4 93.8 93.7 88.3c14.5 13.6 15.2 36.4 1.5 50.9-13.6 14.5-36.4 15.1-50.9 1.5L73.6 452.9c-7.1-6.7-11.2-16-11.3-25.8-0.1-9.8 3.8-19.2 10.8-26.1L195.1 281z"  horiz-adv-x="1024" />

    
    <glyph glyph-name="mail" unicode="&#61066;" d="M885.9 768.1 132.8 768.1c-39.8 0-72-32.2-72-72l0-625.9c0-39.8 32.2-72 72-72l753.1 0c39.8 0 72 32.2 72 72L957.9 696.1C957.9 735.8 925.6 768.1 885.9 768.1zM808.7 696.1 540.6 472l-1.6-1.3-1.4-1.5c-6.8-7.2-16-11.1-25.9-11.2-0.1 0-0.1 0-0.2 0-9.8 0-19 3.9-25.8 10.9l-1.4 1.4L210.5 696.1 808.7 696.1zM885.9 70.2 132.8 70.2c0 0 0 0 0 0L132.8 666.8l302.8-249.5c20.4-20.2 47.2-31.3 76-31.3 0.2 0 0.3 0 0.5 0 28.9 0.1 55.9 11.4 76.2 31.9l297.7 248.8L886 70.2C885.9 70.2 885.9 70.2 885.9 70.2z"  horiz-adv-x="1024" />

    
    <glyph glyph-name="logout" unicode="&#61067;" d="M778.3 122.8c-34.8-36.1-75.6-64.5-121.4-84.4-47.4-20.6-97.8-31-150-31-100.6 0-195.2 39.2-266.3 110.3C169.4 188.8 130.3 283.4 130.3 384s39.2 195.2 110.3 266.3c71.1 71.1 165.7 110.3 266.3 110.3s195.2-39.2 266.3-110.3c14.1-14.1 36.9-14.1 50.9 0 14.1 14.1 14.1 36.9 0 50.9C783 742.5 735 774.8 681.6 797.4c-55.3 23.4-114.1 35.3-174.7 35.3S387.6 820.8 332.3 797.4c-53.4-22.6-101.4-54.9-142.6-96.1s-73.5-89.2-96.1-142.6C70.1 503.3 58.3 444.6 58.3 384s11.9-119.3 35.3-174.7c22.6-53.4 54.9-101.4 96.1-142.6 41.2-41.2 89.2-73.5 142.6-96.1 55.3-23.4 114.1-35.3 174.7-35.3 62.1 0 122.2 12.4 178.7 37 54.5 23.7 103.2 57.5 144.6 100.5 13.8 14.3 13.4 37.1-1 50.9C814.9 137.5 792.1 137.1 778.3 122.8zM962 382.9c-0.2 7.6-2.8 15.1-7.6 21.3L845.7 542.9c-12.3 15.6-34.9 18.4-50.5 6.1-15.6-12.3-18.4-34.9-6.1-50.5L852 418 444 418c-19.9 0-36-16.1-36-36 0-0.1 0-0.1 0-0.2 0-0.1 0-0.1 0-0.2 0-19.9 16.1-36 36-36L852 345.6 789 265.2c-12.3-15.6-9.5-38.3 6.1-50.5 6.6-5.2 14.4-7.7 22.2-7.7 10.7 0 21.3 4.7 28.4 13.8l108.7 138.7c4.9 6.2 7.4 13.7 7.6 21.3 0 0.4 0 0.7 0 1.1C962 382.2 962 382.5 962 382.9z"  horiz-adv-x="1024" />

    
    <glyph glyph-name="link" unicode="&#61068;" d="M541.7 230.3 362.9 51.4c-24.7-24.7-57.6-38.4-92.6-38.4-35 0-67.9 13.6-92.6 38.4S139.2 109 139.2 144c0 35 13.6 67.9 38.4 92.6l178.9 178.9c14.1 14.1 14.1 36.9 0 50.9-14.1 14.1-36.9 14.1-50.9 0L126.7 287.6C88.3 249.2 67.2 198.2 67.2 144c0-54.2 21.1-105.2 59.5-143.5 39.6-39.6 91.6-59.4 143.5-59.4 52 0 104 19.8 143.5 59.4l178.9 178.9c14.1 14.1 14.1 36.9 0 50.9S555.8 244.3 541.7 230.3zM899.4 773.2c-79.2 79.2-207.9 79.2-287.1 0L433.4 594.3c-14.1-14.1-14.1-36.9 0-50.9 14.1-14.1 36.9-14.1 50.9 0l178.9 178.9c51.1 51.1 134.2 51.1 185.3 0 24.7-24.7 38.4-57.6 38.4-92.6s-13.6-67.9-38.4-92.6L669.6 358.2c-14.1-14.1-14.1-36.9 0-50.9 7-7 16.2-10.5 25.5-10.5s18.4 3.5 25.5 10.5l178.9 178.9C978.6 565.3 978.6 694.1 899.4 773.2zM486.5 307.5l102 102c14.1 14.1 14.1 36.9 0 50.9-14.1 14.1-36.9 14.1-50.9 0l-102-102c-14.1-14.1-14.1-36.9 0-50.9 7-7 16.2-10.5 25.5-10.5S479.4 300.5 486.5 307.5z"  horiz-adv-x="1024" />

    
    <glyph glyph-name="areachart" unicode="&#61069;" d="M923-64 99-64c-19.9 0-36 16.1-36 36L63 797c0 19.9 16.1 36 36 36s36-16.1 36-36l0-789 788 0c19.9 0 36-16.1 36-36S942.9-64 923-64zM192.5 96.2 309.2 305c5.4 9.7 17.4 13.5 27.4 8.9l111.2-51.7L566.3 433c6 8.7 17.6 11.6 27 6.8L702.8 384l160.3 251.2c9.3 14.6 31.9 8 31.9-9.3l0-520.1c0-21.3-17.3-38.6-38.6-38.6l-646 0C195.4 67.1 185.8 82.9 192.5 96.2z"  horiz-adv-x="1024" />

    
    <glyph glyph-name="linechart" unicode="&#61070;" d="M923-64 99-64c-19.9 0-36 16.1-36 36L63 797c0 19.9 16.1 36 36 36s36-16.1 36-36l0-789 788 0c19.9 0 36-16.1 36-36S942.9-64 923-64zM385 153c-12 0-23.4 6-30.1 16.3l-157 250c-10.9 16.6-6.3 38.9 10.4 49.8 16.6 10.9 38.9 6.3 49.8-10.4l112.4-181.9L416.1 454c2.6 10.2 9.7 18.8 19.2 23.4l182 88c16.6 8 36.6 2.2 46.3-13.5l91.5-148.3L888.8 807.3c6.3 18.9 26.6 29.1 45.5 22.9 18.9-6.3 29.1-26.6 22.9-45.5l-158-477c-4.4-13.3-16.1-22.8-30-24.4-13.9-1.6-27.5 5-34.8 16.9l-115 186.2-137.7-66.6L419.9 180c-3.6-13.8-14.9-24.2-29-26.5C388.9 153.2 386.9 153 385 153z"  horiz-adv-x="1024" />

    
    <glyph glyph-name="home" unicode="&#61071;" d="M932.4 453.8 560.3 811.9c-27.4 24.8-69.1 24.8-96.5 0L91.6 453.8C76.8 440.5 75.7 417.8 89 403l0 0c13.3-14.8 36.1-15.9 50.8-2.6L512 758.5l372.2-358.1c14.8-13.3 37.5-12.2 50.8 2.6l0 0C948.3 417.8 947.2 440.5 932.4 453.8zM833 321 833 321c-19.9 0-36-16.1-36-36l0-277L654 8 654 248c0 39.8-32.2 72-72 72L442 320c-39.8 0-72-32.2-72-72l0-240L227 8 227 285c0 19.9-16.1 36-36 36l0 0c-19.9 0-36-16.1-36-36l0-277c0-39.8 32.2-72 72-72l570 0c39.8 0 72 32.2 72 72L869 285C869 304.9 852.9 321 833 321zM442 248l140 0 0-240L442 8 442 248z"  horiz-adv-x="1024" />

    
    <glyph glyph-name="laptop" unicode="&#61072;" d="M887.4 759.9 887.4 759.9C887.4 759.9 887.4 759.9 887.4 759.9l0-559.4c0 0 0 0 0 0L134.8 200.5c0 0 0 0 0 0L134.8 759.9c0 0 0 0 0 0L887.4 759.9M887.4 831.9 134.8 831.9c-39.8 0-72-32.2-72-72l0-559.4c0-39.8 32.2-72 72-72l752.6 0c39.8 0 72 32.2 72 72L959.4 759.9C959.4 799.7 927.1 831.9 887.4 831.9L887.4 831.9zM923.4-16.3 98.8-16.3c-19.9 0-36 16.1-36 36l0 0c0 19.9 16.1 36 36 36l824.6 0c19.9 0 36-16.1 36-36l0 0C959.4-0.2 943.3-16.3 923.4-16.3z"  horiz-adv-x="1024" />

    
    <glyph glyph-name="star-f" unicode="&#61073;" d="M956 497.5c-10.4 31-36.9 53.3-69.2 58.2L682.1 587 590.5 782c-7.3 15.6-18.9 28.5-33.6 37.4-13.5 8.2-29.1 12.5-44.9 12.5-15.9 0-31.4-4.3-44.9-12.5-14.7-8.9-26.3-21.8-33.6-37.4L341.9 587l-204.7-31.3c-32.3-4.9-58.8-27.2-69.2-58.2-10.4-31-2.6-64.7 20.2-88.1l150.7-154.5-35.6-218c-4.1-25.2 3-50.7 19.5-70.1 16.6-19.5 40.7-30.7 66.2-30.7 14.6 0 29.1 3.8 42 10.9L512 47l181-100.1c12.9-7.1 27.4-10.9 42-10.9 25.5 0 49.6 11.2 66.2 30.7 16.5 19.4 23.6 44.9 19.5 70.1l-35.6 218 150.7 154.5C958.6 432.7 966.3 466.5 956 497.5z"  horiz-adv-x="1024" />

    
    <glyph glyph-name="star" unicode="&#61074;" d="M512 759.9c5.3 0 10.7-2.8 13.4-8.5l104.5-222.7c2.1-4.5 6.3-7.6 11.1-8.3l234.9-35.9c11.9-1.8 16.7-16.3 8.3-24.9L713.4 284.5c-3.3-3.4-4.8-8.1-4-12.7l40.2-246.6c1.6-9.5-6-17.2-14.6-17.2-2.4 0-4.8 0.6-7.1 1.9L519.1 125.29999999999995c-2.2 1.2-4.7 1.8-7.1 1.8s-4.9-0.6-7.1-1.8L296.1 9.899999999999977c-2.3-1.3-4.8-1.9-7.1-1.9-8.5 0-16.1 7.6-14.6 17.2l40.2 246.6c0.8 4.6-0.7 9.3-4 12.7L139.7 459.6c-8.4 8.6-3.5 23.1 8.3 24.9L383 520.4c4.9 0.7 9 3.9 11.1 8.3l104.5 222.7C501.3 757.1 506.7 759.9 512 759.9M512 831.9c-15.9 0-31.4-4.3-44.9-12.5-14.7-8.9-26.3-21.8-33.6-37.4L341.9 587l-204.7-31.3c-32.3-4.9-58.8-27.2-69.2-58.2-10.4-31-2.6-64.7 20.2-88.1l150.7-154.5-35.6-218c-4.1-25.2 3-50.7 19.5-70.1 16.6-19.5 40.7-30.7 66.2-30.7 14.6 0 29.1 3.8 42 10.9L512 47l181-100.1c12.9-7.1 27.4-10.9 42-10.9 25.5 0 49.6 11.2 66.2 30.7 16.5 19.4 23.6 44.9 19.5 70.1l-35.6 218 150.7 154.5c22.8 23.4 30.5 57.1 20.2 88.1-10.4 31-36.9 53.3-69.2 58.2L682.1 587 590.5 782c-7.3 15.6-18.9 28.5-33.6 37.4C543.4 827.6 527.9 831.9 512 831.9L512 831.9z"  horiz-adv-x="1024" />

    
    <glyph glyph-name="folder" unicode="&#61077;" d="M892.5 647.9 515.1 647.9c-0.9 0.3-2.5 1.6-3 2.4l-15.6 56c-3.8 16.6-13.7 31.9-27.8 43.2-14 11.2-31 17.4-47.7 17.4L134.4 766.9c-38.1 0-69.1-31.6-69.1-70.4l0-625.1c0-38.8 31-70.3 69.1-70.3l758.1 0c18.2 0 35.4 7.2 48.4 20.2 13.3 13.4 20.7 31.2 20.6 50.2l0 506C961.6 616.3 930.6 647.9 892.5 647.9zM132.3 696.5c0 1.9 1.2 3.4 2.1 3.4L421 699.9c1.2 0 3.5-0.8 5.8-2.7 2.5-2 3.8-4.2 4.2-5.4l0-0.1 14.6-51.8L132.3 639.9 132.3 696.5zM894.3 71.4c0-1.1-0.3-1.9-1-2.7-0.5-0.5-0.8-0.5-1-0.5l-758 0c-0.8 0-2.1 1.4-2.1 3.4L132.2 569.2l762 0L894.2 71.4z"  horiz-adv-x="1024" />

    
    <glyph glyph-name="filter" unicode="&#61078;" d="M890.1 719.4c-12.8 31-42.8 51-76.4 51L212 770.4c-33.5 0-63.5-20-76.4-51-12.9-31-5.9-66.3 17.8-90.1l273-263.3 0-262c0-9.3 3.6-18.3 10.1-25l125.2-129.5c6.9-7.2 16.3-11 25.9-11 4.5 0 9.1 0.9 13.5 2.6 13.6 5.5 22.5 18.7 22.5 33.4L623.6 367.7l248.5 261.5C895.9 653 902.9 688.3 890.1 719.4zM821.2 680.2 562.2 408.1c-6.8-6.8-10.5-15.9-10.5-25.5l0-322-53.2 58L498.5 381c0 9.5-3.8 18.7-10.5 25.4L204.4 680.2c-4.2 4.2-3.5 8.6-2.3 11.6 1.2 3 4 6.6 9.9 6.6l601.7 0c5.9 0 8.6-3.6 9.9-6.6C824.8 688.8 825.4 684.3 821.2 680.2z"  horiz-adv-x="1024" />

    
    <glyph glyph-name="file" unicode="&#61079;" d="M821.9 636.1 697.7 760.2l-45.8 45.8c-16.8 16.8-39.5 26.2-63.2 26.2l-49.9 0L201.8 832.2c-39.8 0-72-32.2-72-72l0-751.1c0-39.8 32.2-72 72-72l620.1 0c39.8 0 72 32.2 72 72L893.9 477.2l0 49.9c0 23.7-9.4 46.4-26.2 63.2L821.9 636.1zM610.8 745.3 807 549.2 610.8 549.2 610.8 745.3zM821.9 9.1C821.9 9.1 821.9 9.1 821.9 9.1l-620.1 0c0 0 0 0 0 0L201.8 760.2c0 0 0 0 0 0l337.1 0 0-247c0-19.9 16.1-36 36-36l247 0L821.9 9.1z"  horiz-adv-x="1024" />

    
    <glyph glyph-name="exception" unicode="&#61080;" d="M667.7 63.2c17.7 0 32 14.6 32 32.6L699.7 478c0 18-14.3 32.6-32 32.6-17.7 0-32-14.6-32-32.6l0-382.2C635.7 77.8 650 63.2 667.7 63.2zM631.7-26.3a36 36.7 0 1 0 72 0 36 36.7 0 1 0-72 0ZM542.4 644.3 225.2 644.3c-18 0-32.6-16.1-32.6-36s14.6-36 32.6-36l317.2 0c18 0 32.6 16.1 32.6 36S560.4 644.3 542.4 644.3zM225.2 380l127.2 0c18 0 32.6 16.1 32.6 36s-14.6 36-32.6 36L225.2 452c-18 0-32.6-16.1-32.6-36S207.2 380 225.2 380zM225.2 187.7l191.2 0c18 0 32.6 16.1 32.6 36 0 19.9-14.6 36-32.6 36L225.2 259.7c-18 0-32.6-16.1-32.6-36C192.6 203.8 207.2 187.7 225.2 187.7zM857.1 833 166.9 833C110.7 833 65 787.3 65 731.1l0-690.2C65-15.3 110.7-61 166.9-61l254.5 0c19.9 0 36 16.1 36 36s-16.1 36-36 36L166.9 11c-16.5 0-29.9 13.4-29.9 29.9L137 731.1c0 16.5 13.4 29.9 29.9 29.9l690.2 0c16.5 0 29.9-13.4 29.9-29.9l0-690.2c0-16.5-13.4-29.9-29.9-29.9l-69.6 0c-19.9 0-36-16.1-36-36s16.1-36 36-36l69.6 0c56.2 0 101.9 45.7 101.9 101.9L959 731.1C959 787.3 913.3 833 857.1 833z"  horiz-adv-x="1024" />

    
    <glyph glyph-name="meh-f" unicode="&#61081;" d="M512 896C229.2 896 0 666.8 0 384s229.2-512 512-512 512 229.2 512 512S794.8 896 512 896zM254.2 453.6c-33.1 0-60 26.9-60 60s26.9 60 60 60 60-26.9 60-60S287.3 453.6 254.2 453.6zM642.8 118.20000000000005l-264 0c-19.9 0-36 16.1-36 36s16.1 36 36 36l264 0c19.9 0 36-16.1 36-36S662.7 118.20000000000005 642.8 118.20000000000005zM769.5 453.6c-33.1 0-60 26.9-60 60s26.9 60 60 60 60-26.9 60-60S802.6 453.6 769.5 453.6z"  horiz-adv-x="1024" />

    
    <glyph glyph-name="meh" unicode="&#61082;" d="M512 896C229.2 896 0 666.8 0 384s229.2-512 512-512 512 229.2 512 512S794.8 896 512 896zM823.1 72.89999999999998c-40.4-40.4-87.5-72.2-139.9-94.3C629-44.39999999999998 571.4-56 512-56c-59.4 0-117 11.6-171.2 34.5-52.4 22.2-99.4 53.9-139.9 94.3-40.4 40.4-72.2 87.5-94.3 139.9C83.6 267 72 324.6 72 384c0 59.4 11.6 117 34.5 171.2 22.2 52.4 53.9 99.4 94.3 139.9 40.4 40.4 87.5 72.2 139.9 94.3C395 812.4 452.6 824 512 824c59.4 0 117-11.6 171.2-34.5 52.4-22.2 99.4-53.9 139.9-94.3 40.4-40.4 72.2-87.5 94.3-139.9C940.4 501 952 443.4 952 384c0-59.4-11.6-117-34.5-171.2C895.3 160.39999999999998 863.6 113.29999999999995 823.1 72.89999999999998zM254.2 513.6m-60 0a60 60 0 1 1 120 0 60 60 0 1 1-120 0ZM769.5 513.6m-60 0a60 60 0 1 1 120 0 60 60 0 1 1-120 0ZM642.8 190.20000000000005l-264 0c-19.9 0-36-16.1-36-36s16.1-36 36-36l264 0c19.9 0 36 16.1 36 36S662.7 190.20000000000005 642.8 190.20000000000005z"  horiz-adv-x="1024" />

    
    <glyph glyph-name="shopping-cart" unicode="&#61083;" d="M922.9 194.10000000000002L327.4 194.10000000000002l29.9 60.9 496.8 0.9c16.8 0 31.2 12 34.2 28.6l68.8 385.1c1.8 10.1-0.9 20.5-7.5 28.4-6.5 7.8-16.2 12.4-26.6 12.5L291 712.6l-5.4 25.4c-3.4 16.2-18 28-34.6 28L96.5 766c-19.4 0-35.3-15.8-35.3-35.3 0-19.5 15.8-35.3 35.3-35.3l125.9 0L246 583.2l58.1-281.3-74.8-122.1c-7.9-10.7-9.1-24.8-3-36.8 6-11.9 18.1-19.4 31.5-19.4l62.8 0c-13.3-17.6-20.6-39.3-20.6-61.7 0-56.6 46-102.6 102.6-102.6s102.6 46 102.6 102.6c0 22.3-7.4 44-20.6 61.7l161.1 0c-13.3-17.6-20.6-39.3-20.6-61.7 0-56.6 46-102.6 102.6-102.6s102.6 46 102.6 102.6c0 22.3-7.4 44-20.6 61.7l113.3 0c19.4 0 35.3 15.8 35.3 35.3C958.2 178.29999999999995 942.4 194.10000000000002 922.9 194.10000000000002zM305.7 643l575.8-1.9-56.4-315.8-452.3-0.8L305.7 643zM402.6 30.299999999999955c-17.4 0-31.6 14.2-31.6 31.6 0 17.4 14.2 31.6 31.6 31.6s31.6-14.2 31.6-31.6C434.2 44.39999999999998 420 30.299999999999955 402.6 30.299999999999955zM727.7 30.299999999999955c-17.4 0-31.6 14.2-31.6 31.6 0 17.4 14.2 31.6 31.6 31.6s31.6-14.2 31.6-31.6C759.3 44.39999999999998 745.1 30.299999999999955 727.7 30.299999999999955z"  horiz-adv-x="1024" />

    
    <glyph glyph-name="save" unicode="&#61084;" d="M649.9 768.1 199.9 768.1c-39.8 0-72-32.2-72-72l0-623c0-39.8 32.2-72 72-72l623 0c39.8 0 72 32.2 72 72L894.9 523.2 649.9 768.1zM328.8 696.1l217 0 0-205.9c0-19.9-16.1-36-36-36l-145 0c-19.9 0-36 16.1-36 36L328.8 696.1zM822.9 73.1l-623 0 0 623 56.9 0 0-205.9c0-59.6 48.4-108 108-108l145 0c59.6 0 108 48.4 108 108L617.8 696.1l2.3 0 202.7-202.7L822.8 73.1zM468.8 526.2c19.9 0 36 16.1 36 36l0 43c0 19.9-16.1 36-36 36s-36-16.1-36-36l0-43C432.8 542.3 448.9 526.2 468.8 526.2z"  horiz-adv-x="1024" />

    
    <glyph glyph-name="user" unicode="&#61085;" d="M819.4 103c-16.8 39.7-40.9 75.4-71.5 106-30.6 30.6-66.3 54.7-106 71.5-13.5 5.7-27.4 10.5-41.4 14.4 39.6 13.4 75.9 35.8 106.3 66.2 52 52 80.7 121.2 80.7 194.7s-28.6 142.7-80.7 194.7c-52 52-121.2 80.7-194.7 80.7s-142.7-28.6-194.7-80.7c-52-52-80.7-121.2-80.7-194.7s28.6-142.7 80.7-194.7c30.4-30.4 66.7-52.8 106.3-66.2-14-3.9-27.9-8.6-41.4-14.4-39.7-16.8-75.4-40.9-106-71.5-30.6-30.6-54.7-66.3-71.5-106-17.4-41.2-26.2-84.8-26.2-129.9 0-19.9 16.1-36 36-36s36 16.1 36 36c0 69.9 27.2 135.6 76.6 185 49.4 49.4 115.1 76.6 185 76.6 69.9 0 135.6-27.2 185-76.6s76.6-115.1 76.6-185c0-19.9 16.1-36 36-36s36 16.1 36 36C845.6 18.2 836.8 61.8 819.4 103zM308.6 555.8c0 112.2 91.3 203.4 203.4 203.4S715.4 668 715.4 555.8 624.2 352.4 512 352.4 308.6 443.7 308.6 555.8z"  horiz-adv-x="1024" />

    
    <glyph glyph-name="video-camera" unicode="&#61086;" d="M1010.3 573.3c-7.2 6.2-16.3 9.7-25.8 9.7-6.5 0-12.9-1.6-18.6-4.7l-125.6-67L840.3 698.7c0 39.3-31.9 71.3-71 71.3L71 770c-39.1 0-71-32-71-71.3l0-629.4C0 30 31.9-2 71-2l698.4 0c39.1 0 71 32 71 71.3L840.4 271.79999999999995l122.9-78.4c6.4-4.1 13.7-6.2 21.2-6.2 9 0 17.9 3.2 25 8.9 9.2 7.6 14.5 19 14.5 31.3L1024 542.6C1024 554.6 1019 565.8 1010.3 573.3zM945 477.2l0-178.1-103.2 65.8 0 57.3L945 477.2zM761.4 667.2L761.4 101c0-13-10.5-23.6-23.5-23.6L102.5 77.39999999999998C89.5 77.39999999999998 79 88 79 101L79 667.2c0 13 10.5 23.6 23.5 23.6l635.4 0C750.9 690.8 761.4 680.2 761.4 667.2z"  horiz-adv-x="1024" />

    
    <glyph glyph-name="to-top" unicode="&#61087;" d="M920 74L104 74c-19.9 0-36-16.1-36-36s16.1-36 36-36l816 0c19.9 0 36 16.1 36 36S939.9 74 920 74zM365.6 575.5c9.2 0 18.4 3.5 25.5 10.5L476 671l0-449c0-19.9 16.1-36 36-36 19.9 0 36 16.1 36 36L548 671l84.9-84.9c7-7 16.2-10.5 25.5-10.5s18.4 3.5 25.5 10.5c14.1 14.1 14.1 36.9 0 50.9L537.5 783.3c-14.1 14.1-36.9 14.1-50.9 0L340.2 637c-14.1-14.1-14.1-36.9 0-50.9C347.2 579 356.4 575.5 365.6 575.5z"  horiz-adv-x="1024" />

    
    <glyph glyph-name="team" unicode="&#61088;" d="M839.1 408.6c-19.9 19.9-42.5 35.6-67.5 46.9 29 15.3 53.8 37.5 72.4 64.9 22.7 33.4 34.7 72.4 34.7 113 0 110.9-90.2 201.1-201.1 201.1-42 0-82.2-12.8-116.3-37-29.7-21.1-52.9-49.4-67.5-82.4-38 40.9-90.9 64.2-147.3 64.2-110.9 0-201.1-90.2-201.1-201.1 0-40.5 12-79.5 34.7-112.9 18.6-27.4 43.4-49.6 72.4-65-25-11.3-47.7-27-67.5-46.9-43.3-43.3-67.2-100.7-67.2-161.6l0-164.7c0-50 40.7-90.8 90.8-90.8l276 0c36.4 0 69.3 22 83.5 55.2l247.7 0c50 0 90.8 40.7 90.8 90.8L906.6 247.1C906.3 308 882.5 365.4 839.1 408.6zM585.7 725.3c24.5 24.6 57.1 38.1 91.9 38.1 34.8 0 67.4-13.5 91.9-38.1 24.6-24.5 38.1-57.1 38.1-91.9S794 566 769.5 541.5c-24.5-24.6-57.1-38.1-91.9-38.1-34.8 0-67.4 13.5-91.9 38.1-24.6 24.5-38.1 57.1-38.1 91.9S561.1 700.8 585.7 725.3zM216.4 578.2c0 34.8 13.5 67.4 38.1 91.9 24.5 24.6 57.1 38.1 91.9 38.1 34.8 0 67.4-13.5 91.9-38.1 24.6-24.6 38.1-57.2 38.1-91.9 0-34.8-13.5-67.4-38.1-91.9-24.5-24.6-57.1-38.1-91.9-38.1-34.7 0-67.4 13.5-92 38.1C229.9 510.8 216.4 543.5 216.4 578.2zM504 27.2c0-5.2-2-10.1-5.8-13.8-3.7-3.7-8.6-5.8-13.8-5.8l-276 0c-10.8 0-19.6 8.8-19.6 19.6L188.8 191.9c0 41.9 16.4 81.4 46.3 111.3 29.9 29.9 69.4 46.3 111.3 46.3 41.9 0 81.4-16.4 111.3-46.3 0.5-0.5 1-1 1.3-1.4l0.3-0.4c28.8-29.6 44.7-68.5 44.7-109.6L504 27.2zM486.4 372.5c-14.3 11.2-29.7 20.5-46 27.9 39.7 21.1 71.5 55 89.8 96.1 15.4-16.5 33.4-30.4 53.3-40.9-25-11.3-47.7-27.1-67.5-46.9C504.9 397.5 495 385.4 486.4 372.5zM835.2 82.3c0-10.8-8.8-19.6-19.6-19.6L575.2 62.7 575.2 191.9c0 45.3-13.2 88.8-38.2 126.2 7.6 14.9 17.4 28.4 29.3 40.2 29.8 29.9 69.4 46.4 111.3 46.4 41.9 0 81.4-16.4 111.3-46.3 29.9-29.9 46.3-69.4 46.3-111.3L835.2 82.3z"  horiz-adv-x="1024" />

    
    <glyph glyph-name="pad" unicode="&#61089;" d="M885.9 835.2L132.8 835.2c-39.8 0-72-32.2-72-72l0-753.1c0-39.8 32.2-72 72-72l753.1 0c39.8 0 72 32.2 72 72L957.9 763.2C957.9 803 925.6 835.2 885.9 835.2zM132.8 763.2l753.1 0 0 0 0-504.1L132.8 259.1 132.8 763.2C132.8 763.2 132.8 763.2 132.8 763.2zM885.9 10.100000000000023L132.8 10.100000000000023c0 0 0 0 0 0l0 177 753.1 0L885.9 10.100000000000023C885.9 10.100000000000023 885.9 10.100000000000023 885.9 10.100000000000023zM512 93.60000000000002m-36 0a36 36 0 1 1 72 0 36 36 0 1 1-72 0Z"  horiz-adv-x="1024" />

    
    <glyph glyph-name="solution" unicode="&#61090;" d="M575 608.3c0 19.9-14.6 36-32.6 36L225.2 644.3c-18 0-32.6-16.1-32.6-36s14.6-36 32.6-36l317.2 0C560.4 572.3 575 588.4 575 608.3zM225.2 380l127.2 0c18 0 32.6 16.1 32.6 36 0 19.9-14.6 36-32.6 36L225.2 452c-18 0-32.6-16.1-32.6-36C192.6 396.1 207.2 380 225.2 380zM225.2 187.70000000000005l191.2 0c18 0 32.6 16.1 32.6 36s-14.6 36-32.6 36L225.2 259.70000000000005c-18 0-32.6-16.1-32.6-36S207.2 187.70000000000005 225.2 187.70000000000005zM857.1 833L166.9 833C110.6 833 65 787.4 65 731.1l0-690.2C65-15.399999999999977 110.6-61 166.9-61l253.8 0c19.7 0 36.3 15.6 36.6 35.3 0.4 20.2-15.8 36.7-36 36.7L166.9 11c-16.5 0-29.9 13.4-29.9 29.9L137 731.1c0 16.5 13.4 29.9 29.9 29.9l690.2 0c16.5 0 29.9-13.4 29.9-29.9l0-372.9c0-19.9 16.1-36 36-36l0 0c19.9 0 36 16.1 36 36L959 731.1C959 787.4 913.4 833 857.1 833zM894 94.39999999999998c-16.9 16.9-36.1 30.7-56.8 41.2 20.5 23.9 33 55 33 88.9 0 75.3-61.2 136.5-136.5 136.5s-136.5-61.2-136.5-136.5c0-35.2 13.4-67.3 35.4-91.6-18.3-9.8-35.3-22.2-50.4-37-32.5-31.8-53.9-71.8-62.4-115.4-4.3-22.2 12.8-42.8 35.4-42.8l0 0c17.2 0 32 12.2 35.4 29.1 13.6 68.6 74.2 120.4 146.7 120.4 72.5 0 133.1-51.9 146.7-120.4 3.4-16.9 18.1-29.1 35.4-29.1l0 0c22.6 0 39.7 20.6 35.4 42.7C946.4 23.399999999999977 925.5 62.799999999999955 894 94.39999999999998zM733.7 160c-35.6 0-64.5 28.9-64.5 64.5s28.9 64.5 64.5 64.5 64.5-28.9 64.5-64.5S769.2 160 733.7 160z"  horiz-adv-x="1024" />

    
    <glyph glyph-name="search" unicode="&#61091;" d="M951.7 0.1 746.8 204.9c53.9 66.2 86.2 150.6 86.2 242.6C833 659.9 660.9 832 448.5 832S64 659.9 64 447.5 236.1 63 448.5 63c91.6 0 175.7 32 241.7 85.5l204.9-204.9c7.8-7.8 18-11.7 28.3-11.7 10.2 0 20.5 3.9 28.3 11.7C967.3-40.8 967.3-15.5 951.7 0.1zM570.1 159.5c-38.5-16.3-79.4-24.5-121.6-24.5-42.2 0-83.1 8.3-121.6 24.5-37.2 15.7-70.6 38.3-99.4 67-28.7 28.7-51.3 62.2-67 99.4-16.3 38.5-24.5 79.4-24.5 121.6s8.3 83.1 24.5 121.6c15.7 37.2 38.3 70.6 67 99.4 28.7 28.7 62.2 51.3 99.4 67 38.5 16.3 79.4 24.5 121.6 24.5 42.2 0 83.1-8.3 121.6-24.5 37.2-15.7 70.6-38.3 99.4-67 28.7-28.7 51.3-62.1 67-99.4 16.3-38.5 24.5-79.4 24.5-121.6s-8.3-83.1-24.5-121.6c-15.7-37.2-38.3-70.6-67-99.4C640.7 197.8 607.3 175.3 570.1 159.5z"  horiz-adv-x="1024" />

    
    <glyph glyph-name="share" unicode="&#61092;" d="M814 232.89999999999998c-51.6 0-97.2-26.6-123.7-66.8L454 333.70000000000005c3.9 15.5 6 31.6 6 48.3 0 26.6-5.3 52-14.9 75.2l257.3 129.6c27.2-31.2 67.1-50.9 111.6-50.9 81.6 0 148 66.4 148 148s-66.4 148-148 148-148-66.4-148-148c0-11.3 1.3-22.3 3.7-32.9L405.8 518c-36.1 38.2-87.2 62-143.8 62-109.2 0-198-88.8-198-198s88.8-198 198-198c66.4 0 125.3 32.9 161.3 83.2l243.1-172.4c-0.2-3.3-0.3-6.6-0.3-10 0-81.6 66.4-148 148-148s148 66.4 148 148S895.6 232.89999999999998 814 232.89999999999998zM814 759.9c41.9 0 76-34.1 76-76s-34.1-76-76-76-76 34.1-76 76S772.1 759.9 814 759.9zM262 256c-69.5 0-126 56.5-126 126s56.5 126 126 126 126-56.5 126-126S331.5 256 262 256zM814 8.899999999999977c-41.9 0-76 34.1-76 76s34.1 76 76 76 76-34.1 76-76S855.9 8.899999999999977 814 8.899999999999977z"  horiz-adv-x="1024" />

    
    <glyph glyph-name="setting" unicode="&#61093;" d="M961.8 456.4l-3.8 24-73.3 24.5c-6.4 19.8-14.4 39.2-23.9 57.7l34.6 69.1-14.2 19.8c-28.8 39.3-63.2 73.7-102.3 102.1l-19.7 14.2-69.1-34.6c-18.6 9.5-37.9 17.5-57.7 23.9L608 830.2l-23.8 3.7c-26.5 4.2-49.4 6.2-72.2 6.2-22.2 0-45.2-2-72.3-6.3l-24-3.8-24.4-73.4c-20.2-6.6-39.6-14.6-57.7-23.8l-69 34.7-19.7-14.2c-39.2-28.4-73.6-62.7-102.2-102.1l-14.2-19.8 34.6-69.1c-9.4-18.5-17.4-37.8-23.8-57.6l-73.3-24.3-3.8-24C58 429.9 56 406.3 56 384c0-22.4 2-46 6.2-72.3l3.8-24 73.3-24.5c6.4-19.8 14.4-39.2 23.9-57.7l-34.4-68.9L143 117c14.8-20.6 30.1-38.7 46.7-55.4 15.5-15.6 33.6-30.9 55.3-46.8l19.7-14.2 69 34.6c18.6-9.5 37.9-17.6 57.7-23.9l24.4-73.4 24-3.8c26.3-4.2 49.9-6.2 72.2-6.2 22.3 0 45.9 2 72.3 6.2l24 3.8 24.4 73.4c19.6 6.4 38.9 14.4 57.6 23.8l69.1-34.6 19.7 14.2c21.5 15.5 39.6 30.8 55.3 46.8 16.3 16.3 31.5 34.5 46.7 55.4l14.2 19.8-34.6 69.1c9.5 18.5 17.5 37.8 23.9 57.7l73.3 24.5 3.8 24c4.2 26.3 6.2 49.9 6.2 72.2C968.2 406.3 966.2 430 961.8 456.4zM896.3 384.8l0-0.5c0-13.5-0.9-27.2-2.6-41.9l-35.4-11.8L827 320l-9.7-31.5c-5.5-18.2-12.8-35.9-21.7-52.7l-15.4-29.1 31.4-62.7c-9.2-11.6-18.3-21.9-27.8-31.4l-0.2-0.2c-9.3-9.4-19.6-18.5-31.2-27.6l-62.5 31.3-29-15.1c-17.1-8.9-35.1-16.3-53.4-22.1l-31.3-9.8-10.2-31-11.8-35.4c-14.6-1.8-28.4-2.6-41.9-2.6-13.4 0-27.2 0.9-41.9 2.6l-11.8 35.4-10.3 31.3-31.5 9.7c-18.6 5.7-36.3 13-52.7 21.7L334.9 116l-29.5-14.7-33.3-16.6c-11.6 9.2-21.9 18.3-31.4 27.8-9.7 9.7-18.8 20-27.8 31.4l31.2 62.5-15.2 29c-9.1 17.4-16.5 35.2-21.9 53l-9.7 31.5L130.7 342c-1.8 14.6-2.6 28.4-2.6 41.9s0.9 27.2 2.6 41.9l66.4 22.1 9.7 31.4c5.6 18.1 13 36 21.9 53.2l15.2 29-14.6 29.3-16.6 33.3c17.5 21.8 37.4 41.7 59.2 59.2l62.6-31.3 29.1 15.3c16.8 8.8 34.7 16.2 53.2 22l31.3 9.8 10.4 31.1 11.8 35.4c15.1 1.7 28.8 2.6 41.8 2.6 13.4 0 27.2-0.9 41.8-2.6l22.2-66.3 31.3-9.7c18.2-5.7 36.1-13.1 53.2-21.9l29-15.2 62.5 31.3c21.8-17.5 41.8-37.4 59.5-59.3L780.4 562l15-28.9c8.9-17.2 16.4-35.2 22.1-53.5l9.8-31.3 31.1-10.4 35.4-11.8C895.7 411.1 896.5 397.6 896.3 384.8zM512.2 558.3c-96.1 0-174.3-78.2-174.3-174.3 0-96.1 78.2-174.3 174.3-174.3 96.1 0 174.3 78.2 174.3 174.3C686.5 480.1 608.3 558.3 512.2 558.3zM584.5 311.7c-19.3-19.3-45-30-72.3-30-27.3 0-53 10.6-72.3 30-19.3 19.3-30 45-30 72.3 0 27.3 10.6 53 30 72.3 19.3 19.3 45 30 72.3 30s53-10.6 72.3-30 30-45 30-72.3S603.8 331 584.5 311.7z"  horiz-adv-x="1024" />

    
    <glyph glyph-name="power-off" unicode="&#61094;" d="M512 896C229.2 896 0 666.8 0 384s229.2-512 512-512 512 229.2 512 512S794.8 896 512 896zM823.1 72.89999999999998c-40.4-40.4-87.5-72.2-139.9-94.3C629-44.39999999999998 571.4-56 512-56c-59.4 0-117 11.6-171.2 34.5-52.4 22.2-99.4 53.9-139.9 94.3-40.4 40.4-72.2 87.5-94.3 139.9C83.6 267 72 324.6 72 384c0 59.4 11.6 117 34.5 171.2 22.2 52.4 53.9 99.4 94.3 139.9 40.4 40.4 87.5 72.2 139.9 94.3C395 812.4 452.6 824 512 824c59.4 0 117-11.6 171.2-34.5 52.4-22.2 99.4-53.9 139.9-94.3 40.4-40.4 72.2-87.5 94.3-139.9C940.4 501 952 443.4 952 384c0-59.4-11.6-117-34.5-171.2C895.3 160.39999999999998 863.6 113.29999999999995 823.1 72.89999999999998zM668.9 652.5c-17.2 10-39.2 4.1-49.2-13.1-10-17.2-4.1-39.2 13.1-49.2 36-20.9 66.2-50.8 87.3-86.7 21.7-36.9 33.2-79.1 33.2-122.2 0-64.4-25.1-125-70.7-170.6S576.4 140 512 140s-125 25.1-170.6 70.7-70.7 106.2-70.7 170.6c0 43.1 11.5 85.3 33.2 122.2 21.1 35.8 51.3 65.8 87.3 86.7 17.2 10 23.1 32 13.1 49.2-10 17.2-32 23.1-49.2 13.1-46.7-27.1-85.8-65.9-113.2-112.4-28.2-47.9-43.2-102.8-43.2-158.8 0-83.7 32.6-162.3 91.8-221.5C349.7 100.60000000000002 428.3 68 512 68c83.7 0 162.3 32.6 221.5 91.8 59.2 59.2 91.8 137.8 91.8 221.5 0 55.9-14.9 110.8-43.2 158.8C754.7 586.5 715.6 625.4 668.9 652.5zM512 416c19.9 0 36 16.1 36 36L548 668c0 19.9-16.1 36-36 36-19.9 0-36-16.1-36-36l0-216C476 432.1 492.1 416 512 416z"  horiz-adv-x="1024" />

    
    <glyph glyph-name="picture" unicode="&#61095;" d="M886 767.8 134 767.8c-39.6 0-72-32.4-72-72l0-625.5c0-39.6 32.4-72 72-72l752 0c39.6 0 72 32.4 72 72L958 695.8C958 735.4 925.6 767.8 886 767.8zM886 70.5c0 0-0.1-0.1-0.1-0.1l-751.7 0c0 0-0.1 0.1-0.1 0.1l0 212.8 185.6 189.8L537 203.2c12-13.6 32.2-16.2 47.2-6l160.5 108.5L886 239.2 886 70.5zM886 329.8l-118.1 48.7c-12.3 9.4-29.2 9.9-42 1.2L570.1 274.6 348 549.8c-6.6 7.5-16.1 11.9-26.1 12.2-10 0.3-19.7-3.7-26.7-10.8L134 386.3l0 309.4c0 0 0.1 0.1 0.1 0.1l751.7 0c0 0 0.1-0.1 0.1-0.1L886 329.8zM696 622c-55.7 0-101-45.3-101-101s45.3-101 101-101 101 45.3 101 101S751.7 622 696 622zM696 492c-16 0-29 13-29 29s13 29 29 29 29-13 29-29S712 492 696 492z"  horiz-adv-x="1024" />

    
    <glyph glyph-name="phone" unicode="&#61096;" d="M913.6 732.9C883.1 780 841 834 785.8 834c-16.1 0-40.3-4.9-63.8-28.4-22-21.9-53.2-55.7-76.9-92.3-29.7-45.8-39.2-83.6-29.1-115.5 6.5-20.9 26.6-42 61.7-77.4l0.4-0.4c14.8-15 31.6-32 38-41 6-8.5-1.5-31.5-19.6-60.1-23.6-37.4-63-80.6-98.4-117.9-30.2-28.7-65.6-61.3-98.8-85.4-41.6-30.1-62.8-34.6-71.8-34.6-4.5 0-6.5 1.3-7.5 2-8.8 6.3-25 22.2-41.4 38.4C342 257.4 322 276.6 301.2 283c-8.2 2.5-16.7 3.8-25.5 3.8-28.6 0-61.2-12.9-99.7-39.5-32.6-22.5-62.8-50.6-82.3-70.2-26.8-26.8-30-54.3-28.1-72.7 5.4-51.4 56.6-90.6 100.5-119.1C217.6-48.1 276.8-65 342-65c135.2 0 287.3 74.7 417.4 204.8 45.3 45.3 84.3 93.8 116.1 144.1 32 50.8 55.7 102.4 70.5 153.2C978.2 548.2 967 650.4 913.6 732.9zM877.8 457c-12.9-44.4-33.9-89.9-62.4-135.1-28.8-45.8-64.6-90.2-106.2-131.8-29.5-29.5-60.7-56.3-92.6-79.7-31.2-22.8-63.2-42.3-95-57.9-31.1-15.3-62.4-27-93-34.9-29.9-7.7-59-11.6-86.7-11.6-51.3 0-97.5 13.1-137.3 38.9-16.3 10.6-36.9 24.7-51.5 39.9-13.8 14.2-16.6 23.1-17 27-0.2 2-0.7 6.8 7.6 15 25.2 25.2 50.3 46.7 72.6 62 33.9 23.4 51.7 26.9 59.3 26.9 1.7 0 2.9-0.2 3.8-0.4 1.2-0.7 4.9-3 12-9.1 9.5-8.2 20.9-19.3 37.2-35.3 23.1-22.9 37.9-37 49.9-45.7l1.4-1c14-9.5 30.1-14.4 47.7-14.4 16.2 0 33.2 3.9 52 11.9 18.7 8 38.8 19.9 61.4 36.2 36.4 26.4 74.1 61.1 106.1 91.5l1 0.9 1.4 1.5c39.6 41.7 80 86.2 107.1 128.9 10.7 16.8 18.9 32.8 24.4 47.7 4.7 12.8 7.4 24.7 8.1 36.4 1.6 25.8-7.2 44.2-14.9 55.2-8.8 12.4-23 27.1-43.7 48l-2.2 2.3c-15.9 16-27.4 27.8-35.4 37.1-6 7-8.4 10.7-9.2 12.2-2 7.9 2.6 26.3 21.2 55 20 30.9 47.7 60.9 67.3 80.6l0.1 0.1c5.1 5.1 9.9 7.7 13.8 7.7 6.3 0 15.8-5.4 26-14.9 15.9-14.7 31-36.4 42.3-53.7 20.5-31.7 33.1-67.5 37.3-106.6C895.8 547.1 891.2 503.1 877.8 457z"  horiz-adv-x="1024" />

    
    <glyph glyph-name="paperclip" unicode="&#61097;" d="M884.7 628.8c-47.1 46.5-109.7 72.3-176.5 72.4l-0.7 0c-32.1 0-63.4-6-93.2-17.8-30.9-12.3-58.7-30.4-82.5-53.9L298.9 399.3c-26.9-26.6-41.6-62.1-41.5-100 0.1-37.8 15-73.3 42-100 27-26.7 62.8-41.4 101-41.5l0.3 0c38.1 0 73.8 14.6 100.6 41l204.4 202c6.8 6.7 10.5 15.6 10.5 25 0 9.5-3.7 18.4-10.5 25-6.7 6.7-15.7 10.3-25.2 10.3-9.5 0-18.5-3.7-25.2-10.3l-204.4-202c-13.3-13.2-31.2-20.4-50.3-20.4l-0.1 0c-19.3 0.1-37.4 7.5-50.8 20.8-13.5 13.4-21 31.2-21 50.2-0.1 18.9 7.2 36.6 20.6 49.8l232.9 230.3c33.2 32.9 77.8 51 125.4 51l0.5 0c47.8-0.1 92.7-18.5 126.4-51.7 33.6-33.3 52.2-77.6 52.3-124.8 0.1-47.2-18.2-91.4-51.5-124.3L588.2 85.2c-49.4-48.6-115.4-75.4-185.8-75.4l-0.7 0c-70.7 0.2-137.1 27.4-186.9 76.6-49.8 49.2-77.3 114.8-77.4 184.7-0.2 69.9 27 135.3 76.4 184.1l319 315.4c6.8 6.7 10.5 15.6 10.5 25 0 9.5-3.7 18.4-10.5 25C526 827.3 517 831 507.5 831c-9.5 0-18.5-3.7-25.2-10.3l-319-315.5c-31.8-31.4-56.4-68.3-73.2-109.5C74 355.9 65.9 313.9 66 270.9c0.1-43.1 8.4-85.1 24.8-124.8 16.9-41.2 41.6-78.1 73.6-109.7 31.8-31.5 69.2-56 110.9-72.8 40-16.1 82.5-24.3 126.2-24.5l0.9 0c43.4 0 85.5 8 125.3 23.9 41.6 16.5 78.9 40.8 110.7 72.3l247.1 244.4c23.7 23.5 42.1 50.9 54.5 81.6 12 29.7 18.1 60.9 18 93C957.7 520.3 931.7 582.3 884.7 628.8z"  horiz-adv-x="1024" />

    
    <glyph glyph-name="notification" unicode="&#61098;" d="M922 518.3l-57.3 0 0 17.6c0 27-21.3 49-47.4 49L645 584.9c-7.2 13.8-18 23.8-32.8 23.8C361 608.7 135.3 826.3 135.3 826.3 128 830.2 120.4 832 113 832c-24.7 0-47.2-19.8-47.2-47.2 0-418.7 0-801.1 0-801.1 0-27.6 22.6-47.2 47.2-47.2 8 0 16.3 2.1 24 6.7 0 0 208.5 260.4 478.1 260.4 13.8 0 23.7 9.3 30.3 22.2l4.1 0c1.4-60.3-12.7-124.5-25.8-170.8-7.6-26.9 3-55.2 26.4-70.5 10.6-6.9 22.7-10.4 34.7-10.4 14.4 0 28.7 5 40.5 14.7 69.2 57.5 95.1 123.6 104.7 168.9 6 28.3 6.5 52.2 5.8 68 3.6 4.6 7 9.6 10.3 14.6 18.7 28.7 18.7 39.8 18.7 45.1L864.8 308 922 308c19.9 0 36 16.1 36 36L958 482.3C958 502.2 941.9 518.3 922 518.3zM584.2 274.6c-61.3-3.9-123.6-19.1-185.7-45.4-56.3-23.9-112.5-57-167.1-98.4-37.6-28.5-69.2-57-93.7-81L137.7 729.4c26.4-21 61.8-47.1 103.8-73.1 55.2-34.2 110.9-61.6 165.6-81.3 60.2-21.7 119.4-34.3 176.4-37.5 0-0.6 0-1.1 0-1.7 0-2.3 0.2-4.5 0.6-6.6l0-253.5C584.2 275.3 584.2 275 584.2 274.6zM792.7 291.4c-3.1-6.1-9.6-16.1-13.5-21.1-3.2-2-6.1-4.5-8.5-7.4-6.8-8.2-9.7-19-7.8-29.5 0-0.2 4.1-25.8-3.3-60.8-8.6-40.8-28.4-77.2-58.9-108.6 14.5 58.5 26.7 133.7 18.1 202.3-2.3 18-17.6 31.5-35.7 31.5l-25.6 0 0 29.9c0 3.3-0.5 6.5-1.3 9.5L656.2 512.9l136.5 0L792.7 291.4zM886 380l-21.3 0 0 66.3L886 446.3 886 380z"  horiz-adv-x="1024" />

    
    <glyph glyph-name="mobile" unicode="&#61099;" d="M759.9 835.2 258.8 835.2c-39.8 0-72-32.2-72-72l0-753.1c0-39.8 32.2-72 72-72l501.1 0c39.8 0 72 32.2 72 72L831.9 763.2C831.9 803 799.6 835.2 759.9 835.2zM258.8 763.2l501.1 0 0 0 0-523.1L258.8 240.1 258.8 763.2C258.8 763.2 258.8 763.2 258.8 763.2zM759.9 10.1 258.8 10.1c0 0 0 0 0 0l0 158 501.1 0L759.9 10.1C759.9 10.1 759.9 10.1 759.9 10.1zM543 127.2l-62 0c-19.9 0-36-16.1-36-36s16.1-36 36-36l62 0c19.9 0 36 16.1 36 36S562.9 127.2 543 127.2z"  horiz-adv-x="1024" />

    
    <glyph glyph-name="menu-unfold" unicode="&#61100;" d="M924.9 695.2L96.8 695.2c-19.9 0-36 16.1-36 36s16.1 36 36 36l828.1 0c19.9 0 36-16.1 36-36S944.7 695.2 924.9 695.2zM98.8 450.2l565.1 0c19.9 0 36-16.1 36-36s-16.1-36-36-36L98.8 378.20000000000005c-19.9 0-36 16.1-36 36S78.9 450.2 98.8 450.2zM96.8 72.20000000000005l825.1 0c19.9 0 36-16.1 36-36s-16.1-36-36-36L96.8 0.20000000000004547c-19.9 0-36 16.1-36 36S76.9 72.20000000000005 96.8 72.20000000000005zM826.6 281c-7-6.9-16.1-10.3-25.2-10.3-9.3 0-18.6 3.6-25.7 10.8-13.9 14.2-13.8 37 0.4 50.9l95.4 93.8-93.7 88.3c-14.5 13.6-15.2 36.4-1.5 50.9 13.6 14.5 36.4 15.1 50.9 1.5L948 452.9c7.1-6.7 11.2-16 11.3-25.8 0.1-9.8-3.8-19.2-10.8-26.1L826.6 281z"  horiz-adv-x="1024" />

    
    <glyph glyph-name="inbox" unicode="&#61101;" d="M885.2 449.7l-0.2 0.8L772.8 735.6c-5 16.1-19.9 27.2-36.8 27.2L281.2 762.8c-17 0-32.1-11.3-36.9-27.6L139.4 453l-0.3-0.7-0.2-0.8c-1.3-4.9-1.7-9.9-1-14.8-0.1-1.6-0.2-3.2-0.2-4.8L137.7 66c0-33.5 27.3-60.8 60.8-60.8l627.2 0c33.5 0 60.8 27.3 60.9 60.8L886.6 431.9c0 1.3 0 2.6-0.1 3.7C886.9 440.5 886.5 445.2 885.2 449.7zM589.4 492.7l-0.3-15.7c-0.8-44.9-31.8-75.1-77.1-75.1-22.1 0-41.1 7.1-54.8 20.6S436 454.8 435.6 477l-0.3 15.7L229.5 492.7 309 686l399.2 0 81.7-193.3L589.4 492.7zM214.4 415.9l157.3 0c24.3-57.1 76-90.8 140.4-90.8 33.7 0 65 9.4 90.3 27.2 22.2 15.6 39.5 37.4 50.7 63.6l156.5 0L809.6 82 214.4 82 214.4 415.9z"  horiz-adv-x="1024" />

    
    <glyph glyph-name="qrcode" unicode="&#61103;" d="M876 491.8 812.8 491.8 812.8 389.4 722.4 389.4 722.4 491.8 568.8 491.8 568.8 594.2 517.6 594.2 517.6 633.4 568.8 633.4 568.8 684.6 620 684.6 620 747.8 568.8 747.8 568.8 799 403.2 799 403.2 735.8 505.6 735.8 505.6 696.6 454.4 696.6 454.4 582.2 505.6 582.2 505.6 491.8 454.4 491.8 454.4 440.5 364 440.5 364 491.7 300.8 491.7 300.8 440.5 261.6 440.5 261.6 491.7 147.2 491.7 147.2 440.5 96.1 440.5 96.1 377.3 159.3 377.3 159.3 428.5 249.6 428.5 249.6 377.3 300.8 377.3 300.8 274.9 364 274.9 364 377.3 466.4 377.3 466.4 428.6 659.2 428.6 659.2 389.4 505.6 389.4 505.6 326.2 556.8 326.2 556.8 223.7 671.2 223.7 671.2 286.9 620 286.9 620 326.2 824.8 326.2 824.8 377.3 864 377.3 864 326.1 927.2 326.1 927.2 389.3 876 389.3ZM466.4 287 403.2 287 403.2 121.4 454.4 121.4 454.4 82.2 403.2 82.2 403.2 19 505.6 19 505.6-32.2 568.8-32.2 568.8 19 620 19 620 82.2 556.8 82.2 556.8 31 517.6 31 517.6 121.4 620 121.4 620 184.6 466.4 184.6ZM96.1 338.1l63.2 0 0-63.2-63.2 0 0 63.2ZM153.2 531l153.6 0c31.5 0 57.2 25.7 57.2 57.2L364 741.8c0 31.5-25.7 57.2-57.2 57.2L153.2 799C121.7 799 96 773.3 96 741.8l0-153.6C96 556.7 121.7 531 153.2 531zM159.2 594.2 159.2 735.8l141.6 0 0-141.6L159.2 594.2zM198.4 696.6l63.2 0 0-63.2-63.2 0 0 63.2ZM870 799 716.4 799c-31.5 0-57.2-25.7-57.2-57.2l0-153.6c0-31.5 25.7-57.2 57.2-57.2L870 531c31.5 0 57.2 25.7 57.2 57.2L927.2 741.8C927.2 773.3 901.5 799 870 799zM864 735.8l0-141.6L722.4 594.2 722.4 735.8 864 735.8zM761.6 696.6l63.2 0 0-63.2-63.2 0 0 63.2ZM870 235.8 716.4 235.8c-31.5 0-57.2-25.7-57.2-57.2L659.2 25c0-31.5 25.7-57.2 57.2-57.2L870-32.2c31.5 0 57.2 25.7 57.2 57.2L927.2 178.6C927.2 210.1 901.5 235.8 870 235.8zM864 172.6 864 31 722.4 31 722.4 172.6 864 172.6zM761.6 133.4l63.2 0 0-63.2-63.2 0 0 63.2ZM306.8 235.8 153.2 235.8c-31.5 0-57.2-25.7-57.2-57.2L96 25c0-31.5 25.7-57.2 57.2-57.2l153.6 0c31.5 0 57.2 25.7 57.2 57.2L364 178.6C364 210.1 338.3 235.8 306.8 235.8zM300.8 172.6 300.8 31 159.2 31 159.2 172.6 300.8 172.6zM198.4 133.4l63.2 0 0-63.2-63.2 0 0 63.2Z"  horiz-adv-x="1024" />

    
    <glyph glyph-name="tags" unicode="&#61106;" d="M280.1 617.3c-45.9 0-83.2-37.3-83.2-83.2 0-45.9 37.3-83.2 83.2-83.2 45.8 0 83.1 37.4 83.1 83.3C363.2 580 325.9 617.3 280.1 617.3zM280.1 514.1c-11 0-20 9-20 20s9 20 20 20 20-9 20-20S291.1 514.1 280.1 514.1zM909.5 352l-359 362.4c-8 8.1-18.7 12.6-30.2 12.6L158 727c-34.2 0-62-27.5-62-61.4L96 442c0-11.2 4.4-21.7 12.4-29.7L467 58c11.8-11.5 27.3-17.9 43.8-17.9s32 6.3 43.8 17.9l28.3 28 28.3-28c11.8-11.5 27.3-17.9 43.8-17.9s32 6.4 43.8 17.9L909 265.70000000000005C933 289.29999999999995 933.2 328 909.5 352zM764.8 265.70000000000005c11.7 11.4 18.1 26.7 18.2 43s-6.2 31.7-17.7 43.3L456.4 663.9l55.3 0L863 309.1 655 103.60000000000002l-27.2 26.8L764.8 265.70000000000005zM159.2 451L159.2 663.9l208.3 0 351.2-354.6L578.6 170.79999999999995l-36.3-36.1-31.5-31.1L159.2 451z"  horiz-adv-x="1024" />

    
    <glyph glyph-name="cloud" unicode="&#61107;" d="M702.3 34.700000000000045L297.9 34.700000000000045c-31.8 0-62.1 5.8-90.2 17.1-27.9 11.3-53.7 28.2-76.4 50.3-23 22.3-40.7 47.8-52.5 75.7-11.9 28-18 58.4-18 90.3 0 55 17.8 104.4 52.9 146.8 12.6 15.3 26.8 28.9 42.4 40.4 0.2 24.8 5.1 48.5 14.5 70.6 9.3 22.2 23.4 42.6 41.8 60.6l0.1 0.1c18.1 17.6 38.7 31.1 61.2 40.2 22.5 9.1 46.7 13.7 71.8 13.7 8.5 0 16.8-0.5 25-1.5 15.8 17.4 33.9 33 54 46.4 47.3 31.7 100.8 47.8 158.9 47.8 38.5 0 75-6.9 108.5-20.5 33.8-13.6 64.7-34 92-60.6 27.5-26.9 48.7-57.3 62.8-90.6 9.5-22.2 15.8-45.7 19-70.3 21.3-16.8 39.9-37 55.3-60.2l7.3-10.9 0-0.7c23.2-39.2 35-82.2 35-128.2 0-34.8-6.7-68.2-19.8-99.1-13.1-30.7-32.5-58.7-57.6-83.1-25-24.3-53.3-43-84.3-55.6C770.6 41 737.3 34.700000000000045 702.3 34.700000000000045zM262.6 535.1c-11.5-11.2-20.2-23.7-25.7-37l-0.1-0.2c-5.8-13.7-8.8-28.6-8.8-44.3 0-4.4 0.2-8.7 0.7-13l2.5-22.9-19.7-11.8c-15.9-9.5-30.1-21.9-42.2-36.7l-0.1-0.2c-24.2-29.2-36.4-63.1-36.4-100.9 0-22.1 4.1-43 12.3-62.1 8.1-19.1 20.3-36.6 36.4-52.2 16.1-15.6 34-27.5 53.3-35.3 19.4-7.9 40.6-11.9 63.1-11.9l404.4 0c25.7 0 50 4.6 72.2 13.5 22.2 9 42.8 22.6 61.1 40.4 18.3 17.8 32.3 37.9 41.6 59.7 9.3 21.9 14 45.8 14 70.9 0 35.5-9.8 68.5-29.2 98.3l-2.3 3.5c-13.3 19.5-29.7 36-48.7 49l-14.4 9.8-1.2 17.4c-1.6 22.7-6.7 44.3-15.2 64.1-10.4 24.5-26.2 47.1-46.9 67.3-20.5 20-43.6 35.3-68.7 45.4-24.9 10.1-52.3 15.2-81.5 15.2-43.6 0-83.6-12-118.9-35.6-20.1-13.4-37.4-29.5-51.4-47.7l-14.5-18.8-23 5.9c-9.5 2.4-19.7 3.6-30.2 3.6-15.8 0-30.9-2.8-44.8-8.4C286.8 554.6 274 546.2 262.6 535.1z"  horiz-adv-x="1024" />

    
    <glyph glyph-name="cloud-f" unicode="&#61108;" d="M926.3 411.4l0 0.1-1.3 2c-17.6 26.4-39.4 48.6-64.9 66.1-2 29.1-8.6 56.8-19.6 82.5-13.4 31.4-33.5 60.4-59.8 86-26 25.4-55.5 44.8-87.6 57.8-31.7 12.9-66.5 19.4-103.4 19.4-55.4 0-106.3-15.3-151.3-45.4-25.4-17-47.4-37.4-65.3-60.7-13.5 3.4-27.8 5.2-42.6 5.2-22.3 0-43.7-4-63.5-12-19.8-8-38-20-54.1-35.5-16.3-16-28.7-33.9-36.8-53.3-8.4-19.8-12.7-41.2-12.7-63.6 0-6.2 0.3-12.3 1-18.3-21.2-12.7-40-29.1-56.1-48.7-32.3-39-48.7-84.4-48.7-135 0-29.4 5.6-57.3 16.5-83.1 10.8-25.5 27.1-49 48.4-69.6 21.2-20.5 45-36.2 70.7-46.6 25.8-10.5 53.9-15.8 83.5-15.8l440.6 0c33 0 64.4 5.9 93.4 17.6 29 11.8 55.7 29.4 79.2 52.3 23.6 23 41.8 49.2 54 77.8 12.2 28.8 18.4 60 18.4 92.6C964.4 329.4 951.6 372.6 926.3 411.4z"  horiz-adv-x="1024" />

    
    <glyph glyph-name="cloud-upload-f" unicode="&#61109;" d="M926.3 411.4l0 0.1-1.3 2c-17.6 26.4-39.4 48.6-64.9 66.1-2 29.1-8.6 56.8-19.6 82.5-13.4 31.4-33.5 60.4-59.8 86-26 25.4-55.5 44.8-87.6 57.8-31.7 12.9-66.5 19.4-103.4 19.4-55.4 0-106.3-15.3-151.3-45.4-25.4-17-47.4-37.4-65.3-60.7-13.5 3.4-27.8 5.2-42.6 5.2-22.3 0-43.7-4-63.5-12-19.8-8-38-20-54.1-35.5-16.3-16-28.7-33.9-36.8-53.3-8.4-19.8-12.7-41.2-12.7-63.6 0-6.2 0.3-12.3 1-18.3-21.2-12.7-40-29.1-56.1-48.7-32.3-39-48.7-84.4-48.7-135 0-29.4 5.6-57.3 16.5-83.1 10.8-25.5 27.1-49 48.4-69.6 21.2-20.5 45-36.2 70.7-46.6 25.8-10.5 53.9-15.8 83.5-15.8l440.6 0c33 0 64.4 5.9 93.4 17.6 29 11.8 55.7 29.4 79.2 52.3 23.6 23 41.8 49.2 54 77.8 12.2 28.8 18.4 60 18.4 92.6C964.4 329.4 951.6 372.6 926.3 411.4zM751.1 367.5c-6.8-6.8-15.7-10.5-25.3-10.5s-18.5 3.7-25.3 10.5L632 436l0-246.3c0-19.8-16-35.9-35.8-35.9-19.7 0-35.8 16-35.8 35.8L560.4 435.9l-68.6-68.5c-6.8-6.8-15.7-10.5-25.3-10.5-9.5 0-18.5 3.7-25.3 10.5-14 14-14 36.7 0 50.6l129.6 129.6c6.8 6.8 15.8 10.5 25.3 10.5s18.6-3.7 25.3-10.5l129.6-129.6C765.1 404.1 765.1 381.4 751.1 367.5z"  horiz-adv-x="1024" />

    
    <glyph glyph-name="cloud-download-f" unicode="&#61110;" d="M926.3 411.4l0 0.1-1.3 2c-17.6 26.4-39.4 48.6-64.9 66.1-2 29.1-8.6 56.8-19.6 82.5-13.4 31.4-33.5 60.4-59.8 86-26 25.4-55.5 44.8-87.6 57.8-31.7 12.9-66.5 19.4-103.4 19.4-55.4 0-106.3-15.3-151.3-45.4-25.4-17-47.4-37.4-65.3-60.7-13.5 3.4-27.8 5.2-42.6 5.2-22.3 0-43.7-4-63.5-12-19.8-8-38-20-54.1-35.5-16.3-16-28.7-33.9-36.8-53.3-8.4-19.8-12.7-41.2-12.7-63.6 0-6.2 0.3-12.3 1-18.3-21.2-12.7-40-29.1-56.1-48.7-32.3-39-48.7-84.4-48.7-135 0-29.4 5.6-57.3 16.5-83.1 10.8-25.5 27.1-49 48.4-69.6 21.2-20.5 45-36.2 70.7-46.6 25.8-10.5 53.9-15.8 83.5-15.8l440.6 0c33 0 64.4 5.9 93.4 17.6 29 11.8 55.7 29.4 79.2 52.3 23.6 23 41.8 49.2 54 77.8 12.2 28.8 18.4 60 18.4 92.6C964.4 329.4 951.6 372.6 926.3 411.4zM751.1 293.9L621.5 164.29999999999995c-6.8-6.8-15.8-10.5-25.3-10.5s-18.6 3.7-25.3 10.5L441.3 293.9c-14 14-14 36.7 0 50.6 6.8 6.8 15.7 10.5 25.3 10.5 9.5 0 18.5-3.7 25.3-10.5l68.6-68.5L560.5 522.4c0 19.7 16 35.8 35.8 35.8 19.7 0 35.8-16.1 35.8-35.9L632.1 276l68.5 68.5c6.8 6.8 15.7 10.5 25.3 10.5s18.5-3.7 25.3-10.5C765.1 330.6 765.1 307.9 751.1 293.9z"  horiz-adv-x="1024" />

    
    </font>
</defs>
</svg>
